<svg width="700" height="700" viewBox="0 0 700 700" fill="none" xmlns="http://www.w3.org/2000/svg">
<path d="M656.752 175.931H239.752V469.931H656.752V175.931Z" fill="#CB93EE"/>
<path d="M319.752 276.931H267.752V224.931H319.752V276.931ZM269.752 274.931H317.752V226.931H269.752V274.931Z" fill="black"/>
<path d="M396.752 276.931H344.752V224.931H396.752V276.931ZM346.752 274.931H394.752V226.931H346.752V274.931Z" fill="black"/>
<path d="M549.752 225.931H499.752V275.931H549.752V225.931Z" fill="#FFDF57"/>
<path d="M551.752 277.931H497.752V223.931H551.752V277.931ZM501.752 273.931H547.752V227.931H501.752V273.931Z" fill="white"/>
<path d="M628.752 277.931H574.752V223.931H628.752V277.931ZM578.752 273.931H624.752V227.931H578.752V273.931Z" fill="white"/>
<path d="M318.752 354.931H266.752V302.931H318.752V354.931ZM268.752 352.931H316.752V304.931H268.752V352.931Z" fill="black"/>
<path d="M395.752 354.931H343.752V302.931H395.752V354.931ZM345.752 352.931H393.752V304.931H345.752V352.931Z" fill="black"/>
<path d="M472.752 354.931H420.752V302.931H472.752V354.931ZM422.752 352.931H470.752V304.931H422.752V352.931Z" fill="black"/>
<path d="M550.752 355.931H496.752V301.931H550.752V355.931ZM500.752 351.931H546.752V305.931H500.752V351.931Z" fill="white"/>
<path d="M625.752 303.931H575.752V353.931H625.752V303.931Z" fill="#FFDF57"/>
<path d="M627.752 355.931H573.752V301.931H627.752V355.931ZM577.752 351.931H623.752V305.931H577.752V351.931Z" fill="white"/>
<path d="M471.752 432.931H419.752V380.931H471.752V432.931ZM421.752 430.931H469.752V382.931H421.752V430.931Z" fill="black"/>
<path d="M549.752 433.931H495.752V379.931H549.752V433.931ZM499.752 429.931H545.752V383.931H499.752V429.931Z" fill="white"/>
<path d="M626.752 433.931H572.752V379.931H626.752V433.931ZM576.752 429.931H622.752V383.931H576.752V429.931Z" fill="white"/>
<path d="M324.252 198.931C328.947 198.931 332.752 195.125 332.752 190.431C332.752 185.736 328.947 181.931 324.252 181.931C319.558 181.931 315.752 185.736 315.752 190.431C315.752 195.125 319.558 198.931 324.252 198.931Z" fill="white"/>
<path d="M376.252 198.931C380.947 198.931 384.752 195.125 384.752 190.431C384.752 185.736 380.947 181.931 376.252 181.931C371.558 181.931 367.752 185.736 367.752 190.431C367.752 195.125 371.558 198.931 376.252 198.931Z" fill="white"/>
<path d="M428.252 198.931C432.947 198.931 436.752 195.125 436.752 190.431C436.752 185.736 432.947 181.931 428.252 181.931C423.558 181.931 419.752 185.736 419.752 190.431C419.752 195.125 423.558 198.931 428.252 198.931Z" fill="white"/>
<path d="M480.252 198.931C484.947 198.931 488.752 195.125 488.752 190.431C488.752 185.736 484.947 181.931 480.252 181.931C475.558 181.931 471.752 185.736 471.752 190.431C471.752 195.125 475.558 198.931 480.252 198.931Z" fill="white"/>
<path d="M532.252 198.931C536.947 198.931 540.752 195.125 540.752 190.431C540.752 185.736 536.947 181.931 532.252 181.931C527.558 181.931 523.752 185.736 523.752 190.431C523.752 195.125 527.558 198.931 532.252 198.931Z" fill="white"/>
<path d="M584.252 198.931C588.947 198.931 592.752 195.125 592.752 190.431C592.752 185.736 588.947 181.931 584.252 181.931C579.558 181.931 575.752 185.736 575.752 190.431C575.752 195.125 579.558 198.931 584.252 198.931Z" fill="white"/>
<path d="M324.752 190.671C324.355 190.671 323.973 190.513 323.692 190.231C323.41 189.95 323.252 189.568 323.252 189.171V143.931C323.252 143.533 323.41 143.151 323.692 142.87C323.973 142.589 324.355 142.431 324.752 142.431C325.15 142.431 325.532 142.589 325.813 142.87C326.094 143.151 326.252 143.533 326.252 143.931V189.171C326.252 189.568 326.094 189.95 325.813 190.231C325.532 190.513 325.15 190.671 324.752 190.671Z" fill="black"/>
<path d="M376.252 191.091C375.855 191.091 375.473 190.933 375.192 190.651C374.91 190.37 374.752 189.988 374.752 189.591V144.351C374.752 143.953 374.91 143.571 375.192 143.29C375.473 143.009 375.855 142.851 376.252 142.851C376.65 142.851 377.032 143.009 377.313 143.29C377.594 143.571 377.752 143.953 377.752 144.351V189.591C377.752 189.988 377.594 190.37 377.313 190.651C377.032 190.933 376.65 191.091 376.252 191.091Z" fill="black"/>
<path d="M428.252 191.931C427.855 191.931 427.473 191.773 427.192 191.491C426.91 191.21 426.752 190.828 426.752 190.431V145.191C426.752 144.793 426.91 144.411 427.192 144.13C427.473 143.849 427.855 143.691 428.252 143.691C428.65 143.691 429.032 143.849 429.313 144.13C429.594 144.411 429.752 144.793 429.752 145.191V190.431C429.752 190.828 429.594 191.21 429.313 191.491C429.032 191.773 428.65 191.931 428.252 191.931Z" fill="black"/>
<path d="M480.252 191.091C479.855 191.091 479.473 190.933 479.192 190.651C478.91 190.37 478.752 189.988 478.752 189.591V144.351C478.752 143.953 478.91 143.571 479.192 143.29C479.473 143.009 479.855 142.851 480.252 142.851C480.65 142.851 481.032 143.009 481.313 143.29C481.594 143.571 481.752 143.953 481.752 144.351V189.591C481.752 189.988 481.594 190.37 481.313 190.651C481.032 190.933 480.65 191.091 480.252 191.091Z" fill="black"/>
<path d="M532.252 191.931C531.855 191.931 531.473 191.773 531.192 191.491C530.91 191.21 530.752 190.828 530.752 190.431V145.191C530.752 144.793 530.91 144.411 531.192 144.13C531.473 143.849 531.855 143.691 532.252 143.691C532.65 143.691 533.032 143.849 533.313 144.13C533.594 144.411 533.752 144.793 533.752 145.191V190.431C533.752 190.828 533.594 191.21 533.313 191.491C533.032 191.773 532.65 191.931 532.252 191.931Z" fill="black"/>
<path d="M584.252 191.931C583.855 191.931 583.473 191.773 583.192 191.491C582.91 191.21 582.752 190.828 582.752 190.431V145.191C582.752 144.793 582.91 144.411 583.192 144.13C583.473 143.849 583.855 143.691 584.252 143.691C584.65 143.691 585.032 143.849 585.313 144.13C585.594 144.411 585.752 144.793 585.752 145.191V190.431C585.752 190.828 585.594 191.21 585.313 191.491C585.032 191.773 584.65 191.931 584.252 191.931Z" fill="black"/>
<path d="M217.572 531.611L207.752 605.931L371.752 602.931" fill="white"/>
<path d="M473.752 276.931H421.752V224.931H473.752V276.931ZM423.752 274.931H471.752V226.931H423.752V274.931Z" fill="black"/>
<path d="M561.752 369.931C556.752 363.931 539.752 388.931 531.752 390.931C523.752 392.931 515.752 385.931 520.752 374.931C525.752 363.931 567.752 345.931 565.752 337.931C563.752 329.931 547.752 337.931 522.752 349.931C497.752 361.931 484.752 374.931 473.752 394.931C472.752 396.661 471.602 398.931 470.192 401.761L470.032 402.091L518.592 430.211C522.052 424.211 525.162 419.871 527.752 417.931C543.752 405.931 566.752 375.931 561.752 369.931Z" fill="white"/>
<path d="M535.752 388.931C536.752 371.931 519.752 376.931 519.752 376.931C519.752 376.931 525.752 365.931 542.752 356.931C542.752 356.931 560.352 356.291 556.552 370.111" fill="white"/>
<path d="M536.752 388.991L534.752 388.871C535.022 384.321 533.962 381.071 531.622 379.191C527.362 375.801 520.102 377.871 520.032 377.891L517.722 378.561L518.872 376.451C519.122 375.991 525.212 365.081 542.282 356.051L542.482 355.941H542.712C543.102 355.941 552.162 355.661 556.212 360.771C558.152 363.241 558.592 366.471 557.512 370.391L555.592 369.861C556.482 366.591 556.172 363.951 554.642 362.021C551.542 358.091 544.382 357.921 543.012 357.941C530.852 364.421 524.422 371.941 521.912 375.481C524.742 375.061 529.452 374.931 532.852 377.631C535.752 379.921 537.062 383.751 536.752 388.991Z" fill="black"/>
<path d="M527.752 367.931C527.752 367.931 549.752 358.931 545.752 379.931L527.752 367.931Z" fill="white"/>
<path d="M546.752 380.121L544.752 379.741C545.752 374.321 545.112 370.591 542.752 368.661C538.092 364.851 528.212 368.821 528.112 368.861L527.352 367.001C527.802 366.821 538.442 362.551 544.012 367.111C547.012 369.541 547.912 373.921 546.752 380.121Z" fill="black"/>
<path d="M248.612 600.731C264.612 601.731 263.612 589.731 259.612 587.731C259.612 587.731 265.612 583.731 260.612 576.731C261.767 575.163 262.47 573.309 262.646 571.37C262.823 569.431 262.465 567.481 261.612 565.731C261.612 565.731 270.612 556.731 260.612 551.731C250.612 546.731 213.612 561.731 213.612 561.731L214.612 543.731C214.612 543.731 208.612 541.731 202.612 556.731L188.182 545.871L163.752 600.931L174.612 607.731C198.612 620.731 202.612 626.731 220.612 614.731C238.612 602.731 232.612 599.731 248.612 600.731Z" fill="white"/>
<path d="M371.752 602.931L374.752 564.931C374.752 564.931 382.752 597.931 405.752 602.931C428.752 607.931 445.752 596.931 460.752 564.931C475.752 532.931 511.752 429.931 527.752 417.931C543.752 405.931 566.752 375.931 561.752 369.931C556.752 363.931 539.752 388.931 531.752 390.931C523.752 392.931 515.752 385.931 520.752 374.931C525.752 363.931 567.752 345.931 565.752 337.931C563.752 329.931 547.752 337.931 522.752 349.931C497.752 361.931 484.752 374.931 473.752 394.931C472.752 396.661 471.602 398.931 470.192 401.761C455.322 431.281 417.752 513.931 417.752 513.931C417.752 513.931 403.752 405.931 390.752 391.931C377.752 377.931 354.752 371.931 338.752 373.931C322.752 375.931 252.752 382.931 227.752 389.931C202.752 396.931 89.7524 435.931 61.7524 454.931C33.7524 473.931 38.7524 507.931 56.7524 521.931C74.7524 535.931 150.752 594.931 174.752 607.931C198.752 620.931 202.752 626.931 220.752 614.931C238.752 602.931 232.752 599.931 248.752 600.931C264.752 601.931 263.752 589.931 259.752 587.931C259.752 587.931 265.752 583.931 260.752 576.931C261.907 575.363 262.61 573.509 262.786 571.57C262.963 569.631 262.605 567.681 261.752 565.931C261.752 565.931 270.752 556.931 260.752 551.931C250.752 546.931 213.752 561.931 213.752 561.931L214.752 543.931C214.752 543.931 208.752 541.931 202.752 556.931L121.752 495.931L223.752 462.931L214.752 548.931" fill="white"/>
<path d="M204.542 622.431C198.432 622.431 192.662 619.161 183.472 613.941C180.772 612.411 177.712 610.671 174.272 608.811C152.922 597.241 91.0924 549.911 56.1424 522.721C46.3824 515.131 40.5924 502.191 41.0224 488.931C41.4724 474.991 48.6424 462.621 61.1924 454.101C89.7424 434.731 203.532 395.671 227.482 388.971C248.122 383.191 298.482 377.501 325.582 374.441C331.292 373.801 335.792 373.291 338.632 372.941C354.202 370.941 378.022 376.751 391.482 391.251C403.382 404.061 415.732 491.441 418.282 510.351C425.282 494.891 456.282 427.221 469.282 401.351C470.732 398.471 471.932 396.171 472.852 394.491C484.522 373.281 498.382 360.551 522.302 349.071L524.802 347.871C545.042 338.141 558.422 331.721 564.042 334.361C564.718 334.676 565.31 335.145 565.772 335.73C566.234 336.315 566.552 337 566.702 337.731C567.922 342.601 557.312 349.291 545.032 357.051C535.132 363.301 523.912 370.381 521.642 375.381C519.542 380.011 519.722 384.321 522.152 387.231C523.287 388.53 524.767 389.48 526.42 389.971C528.074 390.461 529.833 390.471 531.492 390.001C534.612 389.221 539.622 384.241 544.492 379.421C550.492 373.481 556.102 367.851 559.972 368.051C560.466 368.068 560.95 368.191 561.392 368.412C561.833 368.633 562.223 368.946 562.532 369.331C562.945 369.901 563.236 370.551 563.385 371.24C563.535 371.928 563.541 372.64 563.402 373.331C562.182 383.781 541.982 408.601 528.402 418.821C517.582 426.941 497.002 478.581 480.472 520.081C472.902 539.081 466.362 555.511 461.712 565.441C446.772 597.301 429.462 609.181 405.592 604.001C387.592 600.091 378.682 580.001 375.382 570.401L372.802 603.101L370.802 602.941L374.302 558.711L375.772 564.781C375.852 565.111 383.902 597.231 406.012 602.041C428.812 607.041 445.432 595.451 459.892 564.601C464.522 554.721 471.052 538.331 478.612 519.341C495.242 477.611 515.932 425.681 527.202 417.221C541.512 406.491 560.392 382.161 561.452 373.101C561.546 372.686 561.557 372.257 561.485 371.839C561.413 371.42 561.259 371.02 561.032 370.661C560.899 370.489 560.73 370.348 560.536 370.25C560.343 370.151 560.13 370.097 559.912 370.091H559.812C556.812 370.091 551.032 375.821 545.942 380.891C540.682 386.131 535.702 391.071 532.042 391.991C530.019 392.555 527.876 392.532 525.864 391.925C523.853 391.317 522.056 390.151 520.682 388.561C517.752 385.041 517.462 379.951 519.892 374.561C522.412 369.011 533.402 362.071 544.032 355.361C553.682 349.261 565.702 341.681 564.832 338.211C564.748 337.777 564.561 337.369 564.289 337.021C564.016 336.674 563.664 336.396 563.262 336.211C558.502 333.971 544.042 340.921 525.732 349.711L523.232 350.911C499.732 362.191 486.122 374.691 474.682 395.491C473.762 397.151 472.572 399.491 471.142 402.291C456.442 431.451 419.142 513.601 418.712 514.421L417.262 517.621L416.812 514.141C416.672 513.061 402.702 406.301 390.072 392.691C377.072 378.691 354.002 373.121 338.922 375.001C336.082 375.361 331.572 375.871 325.862 376.511C298.862 379.511 248.562 385.241 228.072 390.971C204.182 397.661 90.7524 436.571 62.3624 455.841C50.3624 463.991 43.5024 475.841 43.0724 489.071C42.6624 501.701 48.1623 514.071 57.4123 521.221C92.3223 548.371 154.052 595.631 175.282 607.131C178.732 609.001 181.802 610.741 184.502 612.281C200.502 621.371 205.342 624.111 220.252 614.181C224.503 611.391 228.501 608.236 232.202 604.751C236.942 600.371 238.452 599.361 248.862 600.011C255.592 600.431 260.052 598.461 261.092 594.601C261.772 592.091 260.722 589.601 259.352 588.901L257.812 588.131L259.252 587.181C260.508 586.24 261.378 584.875 261.702 583.341C261.819 582.316 261.728 581.279 261.434 580.291C261.141 579.303 260.65 578.384 259.992 577.591L259.552 576.981L260.022 576.391C261.064 574.975 261.697 573.3 261.854 571.55C262.011 569.799 261.685 568.039 260.912 566.461L260.582 565.811L261.092 565.301C261.092 565.301 265.092 561.301 264.452 557.491C264.152 555.661 262.782 554.121 260.352 552.901C250.872 548.161 214.542 562.791 214.182 562.901L212.712 563.491L213.712 544.901C212.072 545.081 207.962 546.671 203.712 557.341L203.222 558.561L119.642 495.611L224.932 461.551L215.752 549.031H215.482L214.842 560.441C221.942 557.671 251.962 546.441 261.212 551.061C264.212 552.571 265.982 554.611 266.392 557.121C267.022 561.021 264.142 564.781 262.952 566.121C263.69 567.867 263.984 569.768 263.81 571.656C263.635 573.544 262.997 575.359 261.952 576.941C263.362 578.874 263.958 581.283 263.612 583.651C263.294 585.252 262.504 586.722 261.342 587.871C262.194 588.833 262.79 589.994 263.073 591.248C263.356 592.501 263.318 593.806 262.962 595.041C262.342 597.341 259.712 602.621 248.682 601.931C238.682 601.311 237.822 602.141 233.502 606.131C229.722 609.692 225.636 612.914 221.292 615.761C214.312 620.431 209.322 622.431 204.542 622.431ZM123.892 496.291L202.322 555.351C207.322 543.531 212.542 542.731 214.382 542.861L222.602 464.351L123.892 496.291Z" fill="black"/>
<path d="M378.789 452.925L373.772 566.925L375.77 567.013L380.787 453.013L378.789 452.925Z" fill="black"/>
<path d="M106.041 488.989L105.485 490.91L123.717 496.186L124.273 494.265L106.041 488.989Z" fill="black"/>
<path d="M215.252 572.431C215.252 572.431 246.252 557.431 261.252 565.431L215.252 572.431Z" fill="white"/>
<path d="M215.692 573.331L214.812 571.531C216.102 570.911 246.452 556.401 261.722 564.531L260.782 566.291C246.402 558.641 215.992 573.181 215.692 573.331Z" fill="black"/>
<path d="M217.252 583.431C217.252 583.431 247.252 568.431 261.252 576.431L217.252 583.431Z" fill="white"/>
<path d="M217.752 584.321L216.852 582.54C218.102 581.91 247.492 567.39 261.852 575.54L260.852 577.28C247.382 569.66 217.992 584.181 217.752 584.321Z" fill="black"/>
<path d="M220.252 594.431C220.252 594.431 238.252 581.431 259.252 587.431L220.252 594.431Z" fill="white"/>
<path d="M220.832 595.241L219.662 593.62C219.852 593.49 238.302 580.401 259.522 586.471L258.982 588.39C238.752 582.6 221.012 595.111 220.832 595.241Z" fill="black"/>
<path d="M310.242 420.531L260.842 384.311L262.022 382.701L309.262 417.331L319.512 388.63L335.652 414.851L355.382 374.13L357.182 375.01L335.852 419.01L319.992 393.231L310.242 420.531Z" fill="black"/>
<path d="M195.938 540.688L162.769 589.849L164.429 590.969L197.598 541.808L195.938 540.688Z" fill="black"/>
<path d="M175.155 537.455L140.701 585.227L142.323 586.397L176.777 538.625L175.155 537.455Z" fill="black"/>
<path d="M470.249 400.106L469.272 401.851L519.275 429.854L520.252 428.109L470.249 400.106Z" fill="black"/>
<path d="M460.064 425.089L459.18 426.883L508.619 451.232L509.503 449.437L460.064 425.089Z" fill="black"/>
<path d="M282.752 605.931C282.752 605.931 295.752 536.931 294.752 471.931C293.752 406.931 273.752 381.75 273.752 381.75L289.752 380.931C289.752 380.931 278.752 362.931 250.752 383.931C250.752 383.931 299.752 371.931 282.752 605.931Z" fill="white"/>
<path d="M283.752 606.121L281.752 605.861C293.592 442.941 273.462 399.801 260.412 388.581C255.122 384.031 251.152 384.861 250.982 384.901L246.412 385.901L250.152 383.091C261.152 374.871 270.852 371.501 279.152 373.091C281.456 373.486 283.658 374.334 285.632 375.585C287.606 376.836 289.312 378.466 290.652 380.381L291.532 381.811L275.652 382.631C279.912 388.981 294.932 415.291 295.802 471.881C296.752 536.271 283.862 605.431 283.752 606.121ZM253.752 382.991C256.658 383.583 259.351 384.944 261.552 386.931C274.372 397.761 293.872 438.051 285.122 585.161C288.892 559.801 294.402 514.801 293.742 471.951C292.742 408.131 273.122 382.631 272.932 382.381L271.722 380.861L287.722 380.031C285.3 377.45 282.114 375.715 278.632 375.081C271.602 373.741 263.232 376.431 253.752 382.991Z" fill="black"/>
<path d="M349.752 372.931C349.752 372.931 371.752 466.931 353.752 605.931C353.752 605.931 375.862 472.931 368.812 377.931C368.812 377.931 355.752 356.931 337.752 373.931L349.752 372.931Z" fill="white"/>
<path d="M354.752 606.091L352.752 605.8C369.622 475.48 351.052 383.69 348.952 374L334.952 375.16L337.022 373.16C342.562 367.93 348.252 365.65 353.902 366.38C363.462 367.62 369.372 376.98 369.612 377.38L369.742 377.581V377.831C376.752 471.921 354.962 604.761 354.752 606.091ZM350.542 371.861L350.732 372.701C350.932 373.521 367.353 445.56 359.812 555.05C365.552 507.63 372.073 435.72 367.812 378.28C366.923 376.95 361.542 369.42 353.652 368.41C349.372 367.86 345.032 369.29 340.712 372.68L350.542 371.861Z" fill="black"/>
<path d="M316.758 396.927L310.775 600.929L312.774 600.988L318.757 396.986L316.758 396.927Z" fill="black"/>
<path d="M323.459 398.596L320.706 600.808L322.706 600.835L325.459 398.624L323.459 398.596Z" fill="black"/>
<path d="M154.752 587.931C156.962 587.931 158.752 586.14 158.752 583.931C158.752 581.721 156.962 579.931 154.752 579.931C152.543 579.931 150.752 581.721 150.752 583.931C150.752 586.14 152.543 587.931 154.752 587.931Z" fill="white"/>
<path d="M154.752 588.931C153.763 588.931 152.797 588.637 151.975 588.088C151.152 587.538 150.511 586.758 150.133 585.844C149.755 584.93 149.656 583.925 149.848 582.955C150.041 581.985 150.518 581.094 151.217 580.395C151.916 579.696 152.807 579.22 153.777 579.027C154.747 578.834 155.752 578.933 156.666 579.311C157.579 579.69 158.36 580.33 158.91 581.153C159.459 581.975 159.752 582.942 159.752 583.931C159.752 585.257 159.226 586.528 158.288 587.466C157.35 588.404 156.078 588.931 154.752 588.931ZM154.752 580.931C154.159 580.931 153.579 581.107 153.086 581.436C152.592 581.766 152.208 582.234 151.981 582.782C151.754 583.331 151.694 583.934 151.81 584.516C151.926 585.098 152.211 585.632 152.631 586.052C153.051 586.471 153.585 586.757 154.167 586.873C154.749 586.989 155.352 586.929 155.9 586.702C156.449 586.475 156.917 586.091 157.247 585.597C157.576 585.104 157.752 584.524 157.752 583.931C157.752 583.135 157.436 582.372 156.874 581.809C156.311 581.247 155.548 580.931 154.752 580.931Z" fill="black"/>
<path d="M503.252 442.931C505.738 442.931 507.752 440.916 507.752 438.431C507.752 435.945 505.738 433.931 503.252 433.931C500.767 433.931 498.752 435.945 498.752 438.431C498.752 440.916 500.767 442.931 503.252 442.931Z" fill="white"/>
<path d="M503.252 443.931C502.165 443.931 501.101 443.608 500.197 443.004C499.292 442.399 498.587 441.54 498.171 440.535C497.755 439.53 497.646 438.424 497.858 437.358C498.07 436.291 498.594 435.311 499.363 434.541C500.133 433.772 501.113 433.248 502.179 433.036C503.246 432.824 504.352 432.933 505.357 433.349C506.362 433.765 507.221 434.47 507.826 435.375C508.43 436.279 508.752 437.343 508.752 438.431C508.75 439.888 508.169 441.286 507.139 442.317C506.108 443.347 504.71 443.928 503.252 443.931ZM503.252 434.931C502.56 434.931 501.884 435.136 501.308 435.52C500.732 435.905 500.284 436.452 500.019 437.091C499.754 437.731 499.685 438.434 499.82 439.113C499.955 439.792 500.288 440.416 500.778 440.905C501.267 441.395 501.891 441.728 502.57 441.863C503.248 441.998 503.952 441.929 504.592 441.664C505.231 441.399 505.778 440.951 506.163 440.375C506.547 439.799 506.752 439.123 506.752 438.431C506.752 437.502 506.384 436.612 505.727 435.956C505.071 435.299 504.181 434.931 503.252 434.931Z" fill="black"/>
<path d="M330.632 245.431C330.632 245.431 355.192 235.611 346.632 215.961C338.072 196.311 317.162 206.141 308.572 214.731C308.572 214.731 292.572 192.631 272.962 202.451C253.352 212.271 259.452 229.451 259.452 229.451C259.452 229.451 226.292 215.941 216.452 234.361C206.612 252.781 216.452 267.521 216.452 267.521C216.452 267.521 195.562 334.971 299.952 321.521C385.892 310.551 330.632 245.431 330.632 245.431Z" fill="#201000"/>
<path d="M286.652 377.361L287.072 345.561C287.072 345.561 269.422 330.85 269.422 317.62C269.422 317.62 234.132 320.56 229.722 298.5C225.312 276.44 242.962 264.68 256.192 272.03L269.422 279.38C269.422 279.38 294.422 276.441 292.952 249.981C292.952 249.981 334.122 223.51 350.302 260.27C366.482 297.03 372.362 329.38 363.532 341.14C354.702 352.9 335.602 354.38 335.602 354.38L335.652 380.38C335.652 380.38 317.652 404.361 286.652 377.361Z" fill="white"/>
<path d="M314.812 391.191C305.652 391.191 295.972 386.801 285.992 378.111C285.884 378.016 285.798 377.899 285.739 377.768C285.681 377.636 285.651 377.494 285.652 377.351L286.062 346.011C283.512 343.811 269.262 331.011 268.462 318.681C262.382 319.001 232.892 319.451 228.742 298.681C226.532 287.621 229.612 277.811 236.972 272.441C239.782 270.345 243.138 269.107 246.635 268.876C250.133 268.646 253.622 269.432 256.682 271.141L269.622 278.331C272.562 277.891 293.282 273.931 291.952 250.011C291.942 249.833 291.979 249.656 292.06 249.498C292.141 249.34 292.263 249.206 292.412 249.111C293.272 248.561 313.712 235.621 331.752 241.051C340.312 243.631 346.862 249.951 351.222 259.851C368.222 298.481 373.222 329.851 364.332 341.721C356.332 352.361 340.622 354.801 336.602 355.261L336.652 380.341C336.652 380.557 336.582 380.768 336.452 380.941C331.768 386.607 325.06 390.226 317.752 391.031C316.776 391.138 315.795 391.192 314.812 391.191ZM287.652 376.911C298.152 385.911 308.222 390.031 317.572 389.051C324.187 388.279 330.276 385.07 334.652 380.051L334.602 354.421C334.602 354.169 334.696 353.926 334.866 353.74C335.037 353.555 335.271 353.441 335.522 353.421C335.712 353.421 354.292 351.841 362.732 340.581C371.172 329.321 365.842 298.111 349.382 260.711C345.282 251.381 339.162 245.431 331.182 243.031C315.502 238.301 297.182 248.641 293.982 250.561C295.082 277.101 269.802 280.391 269.542 280.421C269.335 280.444 269.125 280.402 268.942 280.301L255.752 272.911C253.027 271.388 249.92 270.688 246.806 270.894C243.691 271.1 240.703 272.203 238.202 274.071C231.482 278.981 228.702 288.071 230.752 298.301C234.942 319.241 269.052 316.651 269.392 316.621C269.53 316.609 269.669 316.627 269.8 316.672C269.93 316.718 270.05 316.79 270.152 316.884C270.253 316.978 270.334 317.092 270.389 317.218C270.445 317.345 270.473 317.482 270.472 317.621C270.472 330.231 287.592 344.621 287.762 344.791C287.877 344.886 287.968 345.005 288.03 345.14C288.093 345.275 288.124 345.422 288.122 345.571L287.652 376.911Z" fill="black"/>
<path d="M340.012 314.221C339.796 314.222 339.585 314.153 339.41 314.025C339.236 313.896 339.109 313.714 339.047 313.507C338.985 313.3 338.992 313.078 339.067 312.874C339.142 312.671 339.28 312.498 339.462 312.381C343.612 309.681 345.812 306.381 346.022 302.531C346.572 292.531 333.622 281.751 333.492 281.641C333.289 281.473 333.161 281.232 333.134 280.969C333.108 280.707 333.186 280.445 333.352 280.241C333.435 280.139 333.538 280.054 333.654 279.992C333.77 279.929 333.897 279.891 334.028 279.878C334.159 279.865 334.291 279.878 334.417 279.916C334.543 279.954 334.661 280.017 334.762 280.101C335.322 280.561 348.622 291.571 348.022 302.631C347.782 307.141 345.262 310.991 340.552 314.061C340.391 314.165 340.204 314.22 340.012 314.221Z" fill="black"/>
<path d="M314.822 330.431C311.991 330.484 309.231 329.535 307.032 327.75C301.622 323.33 300.812 315.08 300.782 314.75C300.757 314.485 300.838 314.221 301.008 314.016C301.178 313.81 301.422 313.681 301.687 313.656C301.953 313.63 302.217 313.711 302.422 313.881C302.628 314.051 302.757 314.295 302.782 314.561C302.782 314.641 303.552 322.351 308.322 326.231C309.447 327.121 310.743 327.77 312.13 328.139C313.516 328.507 314.964 328.586 316.382 328.37C316.648 328.341 316.914 328.419 317.122 328.586C317.33 328.753 317.463 328.995 317.492 329.26C317.522 329.526 317.444 329.792 317.277 330C317.11 330.208 316.868 330.341 316.602 330.37C316.011 330.425 315.416 330.445 314.822 330.431Z" fill="black"/>
<path d="M248.102 297.291C247.837 297.291 247.583 297.185 247.395 296.998C247.208 296.81 247.102 296.556 247.102 296.291C247.102 296.121 247.102 291.881 250.252 289.961C252.632 288.491 256.012 288.841 260.312 290.961C260.434 291.016 260.543 291.096 260.634 291.195C260.724 291.294 260.793 291.41 260.838 291.536C260.883 291.663 260.901 291.797 260.893 291.93C260.885 292.064 260.85 292.195 260.79 292.314C260.731 292.434 260.648 292.541 260.546 292.628C260.444 292.715 260.326 292.781 260.199 292.822C260.071 292.863 259.937 292.877 259.803 292.865C259.67 292.853 259.54 292.814 259.422 292.75C255.832 290.95 253.022 290.57 251.302 291.63C249.132 292.97 249.102 296.231 249.102 296.261C249.106 296.394 249.083 296.528 249.035 296.652C248.987 296.777 248.914 296.891 248.82 296.987C248.727 297.083 248.615 297.16 248.492 297.212C248.369 297.264 248.236 297.291 248.102 297.291Z" fill="black"/>
<path d="M300.502 266.5C300.371 266.501 300.24 266.476 300.118 266.426C299.997 266.377 299.886 266.303 299.792 266.211C299.606 266.023 299.502 265.77 299.502 265.505C299.502 265.241 299.606 264.988 299.792 264.801C301.988 262.764 304.858 261.61 307.852 261.561C308.118 261.561 308.372 261.666 308.56 261.853C308.747 262.041 308.852 262.295 308.852 262.561C308.852 262.826 308.747 263.08 308.56 263.268C308.372 263.455 308.118 263.561 307.852 263.561C305.389 263.616 303.029 264.557 301.202 266.211C301.016 266.395 300.765 266.499 300.502 266.5Z" fill="black"/>
<path d="M335.342 268.851C336.563 268.851 337.552 267.861 337.552 266.641C337.552 265.42 336.563 264.431 335.342 264.431C334.122 264.431 333.132 265.42 333.132 266.641C333.132 267.861 334.122 268.851 335.342 268.851Z" fill="#201000"/>
<path d="M309.342 279.851C310.563 279.851 311.552 278.861 311.552 277.641C311.552 276.42 310.563 275.431 309.342 275.431C308.122 275.431 307.132 276.42 307.132 277.641C307.132 278.861 308.122 279.851 309.342 279.851Z" fill="#201000"/>
<path d="M327.313 249.64C327.114 249.642 326.919 249.584 326.754 249.474C326.588 249.364 326.459 249.207 326.383 249.024C326.307 248.841 326.287 248.639 326.326 248.444C326.365 248.249 326.461 248.07 326.602 247.931C328.332 246.201 332.662 243.651 336.692 246.331C336.802 246.404 336.895 246.498 336.968 246.608C337.04 246.718 337.091 246.84 337.116 246.969C337.141 247.099 337.14 247.231 337.114 247.36C337.088 247.489 337.036 247.612 336.962 247.721C336.816 247.94 336.589 248.092 336.33 248.145C336.072 248.197 335.803 248.145 335.582 248C331.912 245.56 328.172 249.191 328.012 249.351C327.826 249.535 327.575 249.639 327.313 249.64Z" fill="black"/>
<path d="M265.412 302.01C265.21 302.009 265.012 301.946 264.846 301.83C264.68 301.714 264.553 301.55 264.482 301.361C257.482 282.751 242.862 284.721 242.232 284.811C241.971 284.848 241.706 284.78 241.495 284.623C241.283 284.466 241.142 284.231 241.102 283.971C241.062 283.709 241.127 283.443 241.282 283.229C241.438 283.016 241.671 282.872 241.932 282.831C242.102 282.831 258.792 280.491 266.352 300.661C266.399 300.783 266.421 300.914 266.417 301.045C266.413 301.177 266.383 301.306 266.33 301.426C266.276 301.545 266.199 301.653 266.103 301.744C266.008 301.834 265.895 301.904 265.772 301.951C265.656 301.99 265.535 302.01 265.412 302.01Z" fill="black"/>
<path d="M184.252 137.931C195.574 137.931 204.752 128.752 204.752 117.431C204.752 106.109 195.574 96.9305 184.252 96.9305C172.931 96.9305 163.752 106.109 163.752 117.431C163.752 128.752 172.931 137.931 184.252 137.931Z" fill="#FCE054"/>
<path d="M344.752 118.431H231.752C231.355 118.431 230.973 118.273 230.692 117.991C230.41 117.71 230.252 117.328 230.252 116.931C230.252 116.533 230.41 116.151 230.692 115.87C230.973 115.589 231.355 115.431 231.752 115.431H344.752C345.15 115.431 345.532 115.589 345.813 115.87C346.094 116.151 346.252 116.533 346.252 116.931C346.252 117.328 346.094 117.71 345.813 117.991C345.532 118.273 345.15 118.431 344.752 118.431Z" fill="black"/>
<path d="M130.492 318.891L118.752 295.671L141.972 283.971L153.672 307.191L130.492 318.891ZM121.492 296.551L131.382 316.201L151.032 306.311L141.142 286.661L121.492 296.551Z" fill="#CB93EE"/>
<path d="M647.752 106.931C647.531 106.929 647.312 106.892 647.102 106.821C646.601 106.648 646.189 106.283 645.957 105.807C645.724 105.331 645.69 104.782 645.862 104.281L654.862 78.2805C655.049 77.7975 655.415 77.4054 655.884 77.1869C656.354 76.9683 656.889 76.9404 657.379 77.1088C657.869 77.2771 658.274 77.6287 658.509 78.0897C658.745 78.5507 658.793 79.0851 658.642 79.5806L649.642 105.581C649.507 105.974 649.252 106.316 648.913 106.558C648.575 106.8 648.169 106.93 647.752 106.931Z" fill="#FCE054"/>
<path d="M611.752 529.93C611.484 529.931 611.218 529.877 610.97 529.772C610.723 529.667 610.499 529.514 610.312 529.321L583.312 501.321C582.944 500.939 582.742 500.426 582.751 499.895C582.761 499.364 582.98 498.859 583.362 498.491C583.744 498.122 584.257 497.92 584.788 497.929C585.319 497.939 585.824 498.159 586.192 498.54L613.192 526.54C613.465 526.823 613.649 527.18 613.721 527.566C613.793 527.952 613.749 528.351 613.595 528.712C613.442 529.074 613.185 529.382 612.857 529.599C612.53 529.816 612.145 529.931 611.752 529.93Z" fill="#CB93EE"/>
</svg>
