<svg width="700" height="700" viewBox="0 0 700 700" fill="none" xmlns="http://www.w3.org/2000/svg">
<rect width="700" height="700" fill="white"/>
<path d="M213.501 482.13L199.402 448.01L166.602 461.57L106.422 315.96L65.1516 333.01L21.5415 529.87L32.6914 556.87L141.542 511.87L167.912 575.66L207.072 559.48L180.701 495.68L213.501 482.13ZM63.7915 504.06L86.1616 409.28L86.2415 408.87C87.5115 400.39 88.5414 392.76 89.4514 385C91.8781 391.44 94.4048 397.826 97.0315 404.16L127.441 477.75L63.7915 504.06Z" fill="#CB93EE"/>
<path d="M630.561 335.91L587.132 325.52L436.332 459.37L429.542 487.76L544.052 515.18L528.052 582.31L569.261 592.17L585.331 525.04L619.842 533.3L628.431 497.41L593.922 489.14L630.561 335.91ZM571.212 401.84L552.672 479.28L485.672 463.28L559.382 399.64L559.692 399.36C565.692 393.23 571.002 387.65 576.292 381.9C574.498 388.533 572.805 395.18 571.212 401.84Z" fill="#CB93EE"/>
<path d="M330.211 338.65C307.261 338.65 292.732 299.65 292.112 297.97L293.991 297.29C294.131 297.68 308.651 336.65 330.231 336.65H331.011C353.911 335.65 371.232 319.29 381.102 289.34L383.001 289.96C372.851 320.78 354.902 337.61 331.092 338.65H330.211Z" fill="black"/>
<path d="M182.281 528C137.671 528 128.101 480.49 121.681 448.61C121.081 445.61 120.511 442.83 119.941 440.17C115.591 419.88 103.771 373.86 94.2615 336.88C88.4515 314.26 83.4316 294.72 81.6416 286.96C78.2616 272.34 54.3815 266.38 38.5815 262.44C32.9715 261.04 28.5816 259.93 25.9116 258.72C22.9116 257.32 21.2415 255.48 21.0215 253.24C20.6815 249.56 24.4714 246.12 25.9514 244.93C24.5914 239.57 28.4916 235.62 31.3616 233.93C30.4916 231.21 30.6816 228.93 31.9216 227.1C34.0216 224.1 38.4815 223.41 40.3515 223.27C40.6386 222.38 41.2115 221.61 41.9814 221.08C49.6514 215.46 83.5816 222.43 94.4216 224.85C88.7916 218.85 76.0816 203.85 80.1716 196.39C80.4974 195.841 80.9661 195.391 81.5281 195.088C82.09 194.785 82.7238 194.64 83.3616 194.67H83.6015C95.7615 194.67 139.502 228.44 149.122 243.23C158.242 257.23 179.871 355.81 184.951 379.39C198.951 305.05 212.542 282.87 246.622 277.19C279.622 271.68 307.471 304.56 307.751 304.9C314.811 312.7 346.282 317.97 359.832 306C361.132 304.58 391.091 272.34 423.281 279.15C456.171 286.15 468.072 316.76 498.811 398.21C505.181 377.32 542.941 254.11 550.811 238.67C560.861 218.89 604.982 198.33 619.982 198.33H620.092C623.042 198.33 624.931 199.16 625.701 200.73C629.211 207.9 616.131 217.41 608.531 222.18C621.251 220 651.921 215.48 658.891 221.08C659.643 221.636 660.185 222.428 660.431 223.33C662.291 223.55 666.721 224.39 668.681 227.53C669.851 229.4 669.941 231.7 668.951 234.38C671.741 236.23 675.461 240.38 673.871 245.64C675.291 246.89 678.941 250.49 678.431 254.15C678.121 256.38 676.431 258.15 673.311 259.42C670.621 260.52 666.151 261.42 660.491 262.58C644.491 265.83 620.412 270.74 616.402 285.21C614.282 292.88 608.401 312.21 601.621 334.53C590.511 371.06 576.691 416.53 571.471 436.6L570.411 440.67C562.411 471.55 549.362 522.27 513.592 522.28C511.782 522.277 509.974 522.154 508.181 521.91C477.541 517.78 436.912 449.5 427.362 432.73L430.362 527.14L428.362 527.2L425.051 424.48L427.051 428.15C427.531 429.02 475.182 515.41 508.392 519.88C525.122 522.14 538.531 513.88 549.391 494.48C558.661 477.94 564.071 456.97 568.391 440.13L569.442 436.06C574.682 415.94 588.502 370.45 599.612 333.91C606.402 311.57 612.271 292.29 614.391 284.63C618.721 268.99 643.562 263.93 660.002 260.63C665.342 259.55 669.951 258.63 672.471 257.58C674.991 256.53 676.152 255.36 676.362 253.89C676.742 251.15 673.361 247.81 671.991 246.76L671.411 246.3L671.672 245.61C673.982 239.61 667.412 235.83 667.132 235.67L666.342 235.23L666.701 234.4C667.701 232.01 667.812 230.06 666.902 228.6C665.312 226.07 660.972 225.34 659.422 225.27H658.491V224.34C658.477 224.012 658.386 223.693 658.226 223.406C658.067 223.12 657.843 222.874 657.572 222.69C650.972 217.39 616.192 222.69 603.342 225.18L597.061 226.4L602.672 223.32C609.672 219.51 627.021 208.17 623.831 201.66C623.441 200.85 622.081 200.4 620.011 200.38H619.902C605.682 200.38 562.091 220.79 552.531 239.62C544.221 255.98 500.272 400.19 499.822 401.62L498.971 404.43L497.971 401.68C466.741 318.91 455.052 287.94 422.872 281.13C391.232 274.42 361.581 307.07 361.281 307.4L361.201 307.48C346.651 320.41 313.931 314.73 306.201 306.23C305.901 305.87 278.792 273.87 246.912 279.23C216.612 284.23 201.441 300.06 185.971 384.75L185.062 389.75L184.011 384.75C183.741 383.51 157.352 259.67 147.402 244.37C138.272 230.13 95.0516 196.63 83.6516 196.63H83.4414C82.2714 196.63 82.0114 197.15 81.9314 197.31C78.3714 203.82 92.4516 220.11 98.1716 225.83L100.681 228.34L97.2314 227.51C84.5114 224.51 49.9916 217.65 43.1616 222.65C42.882 222.823 42.6461 223.058 42.4726 223.337C42.2991 223.617 42.1927 223.932 42.1616 224.26L42.0915 225.19H41.1616C41.1016 225.19 35.5815 225.24 33.5515 228.19C32.5515 229.61 32.5514 231.56 33.4914 233.99L33.8215 234.83L33.0115 235.24C32.7215 235.38 26.0115 238.86 28.0115 244.97L28.2514 245.67L27.6516 246.1C26.2616 247.1 22.7114 250.29 22.9814 253.04C23.1214 254.52 24.3714 255.81 26.7014 256.89C29.0314 257.97 33.7015 259.17 39.0315 260.49C55.3015 264.55 79.9015 270.68 83.5515 286.49C85.3315 294.23 90.3516 313.75 96.1616 336.36C105.672 373.36 117.502 419.36 121.862 439.73C122.432 442.4 123.002 445.24 123.602 448.2C126.942 464.78 131.101 485.43 140.431 501.2C151.291 519.56 166.861 527.57 188.021 525.7C209.681 523.79 224.391 514.2 231.761 497.18C233.894 492.15 235.308 486.844 235.961 481.42L236.362 471.93H238.362C238.535 475.246 238.394 478.57 237.941 481.86L236.021 526.77L234.021 526.69L235.461 493.04C234.931 494.67 234.322 496.33 233.592 498.04C228.312 510.23 216.151 525.29 188.201 527.75C186.191 527.92 184.201 528 182.281 528Z" fill="black"/>
<path d="M104.112 260.76C103.878 260.76 103.651 260.679 103.471 260.53C103.281 260.37 84.1714 244.11 96.2414 225.6C96.3948 225.4 96.6182 225.265 96.8667 225.223C97.1152 225.18 97.3704 225.233 97.5815 225.371C97.7926 225.509 97.9439 225.721 98.0051 225.966C98.0663 226.21 98.033 226.469 97.9116 226.69C86.8216 243.69 104.011 258.38 104.751 259C104.906 259.132 105.017 259.308 105.069 259.505C105.121 259.702 105.111 259.91 105.041 260.102C104.972 260.293 104.846 260.458 104.679 260.576C104.513 260.694 104.315 260.758 104.112 260.76Z" fill="black"/>
<path d="M63.4614 253.73C63.3002 253.729 63.1416 253.69 62.9988 253.615C62.856 253.54 62.7335 253.432 62.6416 253.3C62.5316 253.16 57.2116 246.65 26.6416 245.91C26.3764 245.91 26.1219 245.804 25.9343 245.617C25.7468 245.429 25.6416 245.175 25.6416 244.91C25.6416 244.645 25.7468 244.39 25.9343 244.203C26.1219 244.015 26.3764 243.91 26.6416 243.91C58.8416 244.7 63.9914 251.91 64.1914 252.17C64.2646 252.279 64.3155 252.402 64.3411 252.531C64.3666 252.661 64.3666 252.794 64.3406 252.923C64.3146 253.052 64.2631 253.175 64.1895 253.284C64.1158 253.393 64.0215 253.487 63.9116 253.56C63.7777 253.652 63.623 253.711 63.4614 253.73Z" fill="black"/>
<path d="M70.4916 244.35C70.3308 244.347 70.1731 244.306 70.0316 244.23C69.9016 244.16 56.5917 237.23 32.0917 234.96C31.9603 234.947 31.8327 234.909 31.7162 234.847C31.5996 234.786 31.4965 234.701 31.4125 234.6C31.3284 234.498 31.2652 234.381 31.2264 234.255C31.1877 234.129 31.1742 233.996 31.1866 233.865C31.1991 233.733 31.2374 233.606 31.2992 233.489C31.361 233.373 31.4451 233.27 31.5467 233.186C31.6484 233.102 31.7656 233.038 31.8917 233C32.0178 232.961 32.1503 232.947 32.2816 232.96C57.2116 235.3 70.4115 242.16 70.9615 242.45C71.1962 242.573 71.3723 242.785 71.451 243.038C71.5298 243.291 71.5049 243.565 71.3817 243.8C71.2986 243.965 71.1714 244.103 71.0143 244.2C70.8572 244.298 70.6762 244.349 70.4916 244.35Z" fill="black"/>
<path d="M75.1814 234.96C74.9985 234.962 74.8189 234.913 74.6616 234.82C64.1706 229.101 52.5782 225.692 40.6616 224.82C40.3964 224.799 40.1503 224.673 39.9778 224.47C39.8053 224.268 39.7203 224.005 39.7415 223.74C39.7627 223.475 39.8885 223.229 40.0911 223.056C40.2936 222.884 40.5563 222.799 40.8216 222.82C53.0609 223.689 64.9653 227.207 75.7114 233.13C75.8241 233.198 75.9222 233.289 75.9998 233.395C76.0774 233.502 76.1329 233.623 76.1636 233.751C76.1943 233.879 76.1995 234.013 76.1785 234.143C76.1575 234.273 76.1109 234.398 76.0415 234.51C75.9482 234.652 75.8202 234.767 75.6697 234.846C75.5192 234.925 75.3512 234.964 75.1814 234.96Z" fill="black"/>
<path d="M595.111 258.02C594.956 258.02 594.803 257.984 594.664 257.914C594.525 257.845 594.404 257.744 594.311 257.62C594.151 257.409 594.081 257.143 594.117 256.881C594.152 256.618 594.291 256.38 594.502 256.22C595.262 255.64 613.081 241.73 602.741 224.22C602.659 224.107 602.602 223.977 602.572 223.841C602.543 223.704 602.543 223.562 602.571 223.425C602.6 223.289 602.658 223.159 602.74 223.046C602.822 222.932 602.926 222.837 603.047 222.767C603.168 222.697 603.303 222.653 603.442 222.637C603.581 222.622 603.722 222.637 603.855 222.679C603.988 222.722 604.111 222.792 604.215 222.885C604.32 222.978 604.404 223.092 604.461 223.22C615.721 242.22 595.911 257.65 595.711 257.8C595.541 257.937 595.33 258.014 595.111 258.02Z" fill="black"/>
<path d="M636.051 252.74C635.834 252.744 635.622 252.674 635.451 252.54C635.246 252.383 635.109 252.152 635.07 251.897C635.031 251.642 635.092 251.381 635.241 251.17C635.461 250.87 640.901 243.93 673.111 244.55C673.376 244.55 673.631 244.655 673.818 244.843C674.006 245.03 674.111 245.285 674.111 245.55C674.111 245.815 674.006 246.069 673.818 246.257C673.631 246.444 673.376 246.55 673.111 246.55C642.411 245.95 636.921 252.3 636.871 252.37C636.773 252.491 636.648 252.588 636.505 252.652C636.363 252.716 636.207 252.746 636.051 252.74Z" fill="black"/>
<path d="M629.411 243.13C629.185 243.128 628.966 243.051 628.79 242.909C628.614 242.768 628.492 242.571 628.442 242.35C628.392 242.13 628.418 241.9 628.516 241.696C628.614 241.493 628.778 241.328 628.981 241.23C629.541 240.96 642.981 234.67 668.041 233.43C668.173 233.424 668.303 233.444 668.427 233.489C668.551 233.533 668.664 233.602 668.762 233.691C668.859 233.78 668.937 233.886 668.993 234.005C669.049 234.125 669.08 234.253 669.086 234.385C669.092 234.516 669.072 234.647 669.027 234.771C668.982 234.894 668.914 235.008 668.825 235.105C668.736 235.202 668.63 235.281 668.511 235.336C668.391 235.392 668.262 235.424 668.131 235.43C643.571 236.66 629.971 242.98 629.841 243.04C629.706 243.101 629.559 243.132 629.411 243.13Z" fill="black"/>
<path d="M625.132 233.5C624.911 233.499 624.697 233.426 624.522 233.291C624.348 233.156 624.223 232.967 624.167 232.753C624.112 232.54 624.128 232.314 624.213 232.111C624.299 231.908 624.45 231.739 624.642 231.63C635.618 226.178 647.65 223.182 659.902 222.85C660.167 222.85 660.421 222.955 660.609 223.143C660.796 223.33 660.902 223.585 660.902 223.85C660.902 224.115 660.796 224.369 660.609 224.557C660.421 224.744 660.167 224.85 659.902 224.85C647.973 225.22 636.259 228.128 625.542 233.38C625.416 233.449 625.276 233.49 625.132 233.5Z" fill="black"/>
<path d="M338.711 238.49C311.101 238.49 287.771 251 271.241 274.66C254.451 298.66 245.572 333.5 245.572 375.36C245.962 416.8 254.432 451.13 270.052 474.66C285.672 498.19 307.932 510.57 334.422 510.57C363.812 510.57 387.771 497.85 403.721 473.77C419.541 449.89 427.562 415.58 427.562 371.77C427.562 330.49 419.932 297.77 404.872 274.62C389.502 251 366.631 238.49 338.711 238.49ZM336.372 474.05C307.702 474.05 289.892 436.37 289.892 375.7C289.892 343.53 294.781 317.1 304.011 299.27C309.741 288.21 320.071 275.01 336.761 275.01C377.211 275.01 383.241 336.63 383.241 373.36C383.241 410.97 377.162 474.05 336.372 474.05Z" fill="#FCE054"/>
<path d="M311.382 162.57C311.382 162.57 283.382 151.35 293.162 128.92C302.942 106.49 326.802 117.71 336.612 127.52C336.612 127.52 354.831 102.29 377.261 113.52C399.691 124.75 392.681 144.36 392.681 144.36C392.681 144.36 430.531 128.94 441.741 149.97C452.951 171 441.741 187.82 441.741 187.82C441.741 187.82 465.592 264.82 346.422 249.5C248.302 236.86 311.382 162.57 311.382 162.57Z" fill="#201000"/>
<path d="M361.102 305.36V276.83C361.102 276.83 381.251 260.04 381.251 244.93C381.251 244.93 421.532 248.29 426.572 223.11C431.611 197.93 411.462 184.5 396.352 192.9L381.251 201.29C381.251 201.29 352.712 197.93 354.392 167.72C354.392 167.72 307.392 137.5 288.922 179.47C270.452 221.44 263.752 258.36 273.822 271.79C283.892 285.22 305.711 286.9 305.711 286.9V305.36C305.711 305.36 324.172 350.68 361.102 305.36Z" fill="white"/>
<path d="M330.352 326.51C329.321 326.509 328.291 326.432 327.272 326.28C312.412 324.06 305.092 306.49 304.782 305.74C304.738 305.618 304.714 305.489 304.711 305.36V287.8C300.361 287.32 282.172 284.6 273.022 272.39C263.022 259.08 268.922 222.45 288.022 179.06C292.972 167.81 300.412 160.62 310.152 157.69C330.682 151.51 353.961 166.24 354.941 166.88C355.09 166.975 355.21 167.107 355.291 167.263C355.372 167.419 355.41 167.594 355.402 167.77C353.862 195.38 377.862 199.77 381.062 200.25L395.882 192.02C399.35 190.084 403.305 189.192 407.269 189.453C411.233 189.714 415.036 191.116 418.221 193.49C426.581 199.6 430.072 210.74 427.562 223.31C422.882 246.72 388.691 246.31 382.231 245.99C381.422 260.13 364.872 274.92 362.112 277.29V305.36C362.113 305.589 362.035 305.811 361.892 305.99C350.772 319.62 340.182 326.51 330.352 326.51ZM306.711 305.13C307.501 306.94 314.592 322.34 327.582 324.27C337.452 325.74 348.402 319.27 360.102 304.98V276.83C360.101 276.683 360.133 276.538 360.196 276.405C360.258 276.272 360.349 276.154 360.461 276.06C360.661 275.89 380.252 259.39 380.252 244.93C380.252 244.793 380.281 244.657 380.336 244.532C380.391 244.406 380.471 244.293 380.572 244.2C380.673 244.106 380.794 244.035 380.924 243.99C381.055 243.945 381.194 243.928 381.332 243.94C381.722 243.94 420.792 246.94 425.592 222.94C427.942 211.16 424.742 200.77 417.032 195.14C414.155 192.992 410.717 191.722 407.135 191.484C403.552 191.246 399.977 192.051 396.842 193.8L381.731 202.13C381.549 202.231 381.339 202.273 381.132 202.25C380.842 202.25 352.062 198.48 353.362 168.25C349.912 166.17 328.771 154.15 310.711 159.6C301.561 162.35 294.542 169.17 289.842 179.86C271.042 222.59 265.062 258.44 274.622 271.18C284.292 284.08 305.572 285.87 305.792 285.89C306.043 285.91 306.277 286.024 306.448 286.21C306.618 286.395 306.712 286.638 306.711 286.89V305.13Z" fill="black"/>
<path d="M300.672 240.91C300.48 240.909 300.293 240.854 300.132 240.75C294.792 237.27 291.942 232.92 291.672 227.82C290.992 215.26 306.112 202.74 306.762 202.21C306.966 202.044 307.228 201.966 307.49 201.992C307.752 202.018 307.994 202.147 308.162 202.35C308.245 202.451 308.308 202.569 308.346 202.695C308.384 202.821 308.397 202.953 308.384 203.084C308.371 203.215 308.333 203.342 308.27 203.458C308.208 203.574 308.124 203.677 308.022 203.76C307.872 203.88 293.022 216.17 293.662 227.76C293.902 232.18 296.451 236.01 301.221 239.12C301.399 239.239 301.533 239.412 301.605 239.613C301.677 239.814 301.683 240.033 301.622 240.238C301.56 240.442 301.435 240.622 301.264 240.75C301.093 240.878 300.885 240.948 300.672 240.95V240.91Z" fill="black"/>
<path d="M405.592 221.59C405.326 221.59 405.072 221.484 404.885 221.297C404.697 221.109 404.592 220.855 404.592 220.59C404.592 220.51 404.521 216.73 402.001 215.18C400.001 213.94 396.742 214.38 392.612 216.45C392.494 216.509 392.366 216.544 392.235 216.554C392.104 216.563 391.972 216.547 391.847 216.506C391.722 216.464 391.606 216.399 391.507 216.313C391.407 216.227 391.326 216.122 391.267 216.005C391.207 215.887 391.172 215.759 391.162 215.628C391.153 215.497 391.169 215.365 391.21 215.24C391.252 215.115 391.317 215 391.403 214.9C391.489 214.801 391.594 214.719 391.711 214.66C396.581 212.23 400.392 211.83 403.062 213.48C406.552 215.64 406.592 220.39 406.592 220.59C406.592 220.855 406.486 221.109 406.299 221.297C406.111 221.484 405.857 221.59 405.592 221.59Z" fill="black"/>
<path d="M341.211 180.73C340.949 180.729 340.698 180.625 340.511 180.44C338.392 178.54 335.667 177.456 332.822 177.38C332.556 177.38 332.302 177.274 332.115 177.087C331.927 176.899 331.822 176.645 331.822 176.38C331.822 176.115 331.927 175.86 332.115 175.673C332.302 175.485 332.556 175.38 332.822 175.38C336.2 175.439 339.439 176.738 341.922 179.03C342.108 179.217 342.212 179.471 342.212 179.735C342.212 179.999 342.108 180.252 341.922 180.44C341.828 180.532 341.717 180.606 341.595 180.656C341.474 180.705 341.343 180.73 341.211 180.73Z" fill="black"/>
<path d="M328.062 196.81C329.453 196.81 330.582 195.681 330.582 194.29C330.582 192.898 329.453 191.77 328.062 191.77C326.67 191.77 325.542 192.898 325.542 194.29C325.542 195.681 326.67 196.81 328.062 196.81Z" fill="#201000"/>
<path d="M306.001 189.26C307.393 189.26 308.521 188.132 308.521 186.74C308.521 185.348 307.393 184.22 306.001 184.22C304.61 184.22 303.481 185.348 303.481 186.74C303.481 188.132 304.61 189.26 306.001 189.26Z" fill="#201000"/>
<path d="M318.592 174.04C318.329 174.039 318.078 173.935 317.892 173.75C317.692 173.55 313.352 169.34 309.082 172.19C308.972 172.263 308.849 172.314 308.72 172.339C308.59 172.365 308.457 172.365 308.328 172.339C308.199 172.313 308.076 172.261 307.967 172.188C307.858 172.114 307.764 172.02 307.691 171.91C307.547 171.689 307.495 171.421 307.547 171.162C307.6 170.904 307.752 170.676 307.971 170.53C312.501 167.53 317.361 170.39 319.301 172.33C319.488 172.517 319.592 172.771 319.592 173.035C319.592 173.299 319.488 173.552 319.301 173.74C319.209 173.834 319.098 173.909 318.977 173.961C318.855 174.012 318.724 174.039 318.592 174.04Z" fill="black"/>
<path d="M385.821 226.98C385.701 226.98 385.582 226.956 385.471 226.91C385.226 226.816 385.027 226.628 384.919 226.389C384.81 226.149 384.8 225.877 384.892 225.63C393.482 202.7 412.422 205.33 412.612 205.36C412.742 205.379 412.867 205.424 412.979 205.492C413.092 205.56 413.19 205.65 413.268 205.756C413.346 205.861 413.402 205.982 413.434 206.109C413.465 206.237 413.471 206.37 413.451 206.5C413.432 206.63 413.387 206.755 413.319 206.867C413.251 206.98 413.162 207.078 413.056 207.156C412.95 207.234 412.83 207.291 412.702 207.322C412.574 207.354 412.441 207.36 412.311 207.34C411.601 207.23 394.771 204.97 386.761 226.34C386.688 226.529 386.559 226.692 386.391 226.806C386.223 226.921 386.025 226.981 385.821 226.98Z" fill="black"/>
<path d="M316.051 263.63C315.869 263.627 315.69 263.579 315.531 263.49C315.305 263.353 315.142 263.132 315.079 262.875C315.015 262.618 315.055 262.347 315.191 262.12C315.311 261.92 318.102 257.35 322.872 256.63C325.802 256.17 328.781 257.27 331.711 259.88C331.817 259.965 331.904 260.07 331.967 260.189C332.03 260.308 332.069 260.439 332.081 260.573C332.092 260.708 332.076 260.843 332.034 260.971C331.992 261.1 331.924 261.218 331.835 261.319C331.746 261.421 331.637 261.503 331.515 261.561C331.393 261.619 331.261 261.652 331.126 261.658C330.991 261.663 330.857 261.642 330.73 261.594C330.604 261.546 330.489 261.473 330.392 261.38C327.922 259.19 325.491 258.25 323.181 258.6C319.351 259.18 316.932 263.11 316.912 263.15C316.822 263.297 316.695 263.419 316.545 263.503C316.394 263.587 316.224 263.631 316.051 263.63Z" fill="black"/>
<path d="M186.048 384.483L184.065 384.746L192.81 450.457L194.792 450.193L186.048 384.483Z" fill="black"/>
<path d="M226.141 346.69L223.541 476.72L225.541 476.76L228.141 346.73L226.141 346.69Z" fill="black"/>
<path d="M427.402 354.13H425.402V434.81H427.402V354.13Z" fill="black"/>
<path d="M500.303 394.384L487.367 445.544L489.306 446.034L502.242 394.875L500.303 394.384Z" fill="black"/>
<path d="M156.561 266.393L84.0161 292.941L84.7034 294.819L157.248 268.271L156.561 266.393Z" fill="black"/>
<path d="M159.785 278.118L86.5601 303.289L87.2102 305.18L160.435 280.01L159.785 278.118Z" fill="black"/>
<path d="M611.192 302.81L536.511 281.71L537.052 279.79L609.842 300.35L611.531 294.66L539.922 271.31L540.542 269.41L614.011 293.36L611.192 302.81Z" fill="black"/>
<path d="M232.708 129.646L231.707 131.377L250.771 142.397L251.772 140.666L232.708 129.646Z" fill="black"/>
<path d="M244.923 109.788L243.411 111.097L257.211 127.045L258.723 125.736L244.923 109.788Z" fill="black"/>
<path d="M248.903 108L247.023 108.66L252.719 124.884L254.599 124.224L248.903 108Z" fill="black"/>
<path d="M496.051 136.13C494.173 136.13 492.336 135.573 490.774 134.529C489.211 133.485 487.994 132.001 487.275 130.265C486.556 128.529 486.368 126.619 486.734 124.776C487.101 122.934 488.005 121.241 489.334 119.912C490.663 118.584 492.355 117.679 494.198 117.312C496.041 116.946 497.951 117.134 499.687 117.853C501.423 118.572 502.907 119.79 503.95 121.352C504.994 122.914 505.551 124.751 505.551 126.63C505.549 129.148 504.547 131.563 502.766 133.344C500.985 135.125 498.57 136.127 496.051 136.13ZM496.051 120.13C494.766 120.13 493.509 120.511 492.44 121.225C491.371 121.939 490.538 122.955 490.046 124.142C489.554 125.33 489.426 126.637 489.676 127.898C489.927 129.159 490.546 130.317 491.455 131.226C492.364 132.135 493.523 132.754 494.783 133.005C496.044 133.256 497.351 133.127 498.539 132.635C499.727 132.143 500.742 131.31 501.456 130.241C502.17 129.172 502.551 127.915 502.551 126.63C502.549 124.907 501.863 123.255 500.645 122.036C499.426 120.818 497.775 120.132 496.051 120.13Z" fill="#CB93EE"/>
<path d="M445.896 559.751L404.889 579.742L406.204 582.439L447.21 562.447L445.896 559.751Z" fill="#FCE054"/>
<path d="M202.501 226.19L179.501 214.08L191.612 191.08L214.612 203.19L202.501 226.19ZM183.501 212.82L201.251 222.13L210.562 204.43L192.852 195.13L183.501 212.82Z" fill="#FCE054"/>
<path d="M262.975 415.371L260.115 416.274L266.115 435.269L268.975 434.366L262.975 415.371Z" fill="white"/>
<path d="M394.052 304.13H391.052V325.13H394.052V304.13Z" fill="white"/>
</svg>
