<svg width="700" height="700" viewBox="0 0 700 700" fill="none" xmlns="http://www.w3.org/2000/svg">
<path d="M240 306L199 618L556 617L502 306H240Z" fill="#FCE054"/>
<path d="M371 180C370.735 180 370.48 179.895 370.293 179.707C370.105 179.52 370 179.265 370 179L369 81C369 80.7348 369.105 80.4804 369.293 80.2929C369.48 80.1054 369.735 80 370 80C370.265 80 370.52 80.1054 370.707 80.2929C370.895 80.4804 371 80.7348 371 81L372 179C372 179.265 371.895 179.52 371.707 179.707C371.52 179.895 371.265 180 371 180Z" fill="black"/>
<path d="M502 307C501.155 272.828 486.987 240.339 462.519 216.469C438.052 192.598 405.223 179.237 371.04 179.237C336.857 179.237 304.028 192.598 279.561 216.469C255.093 240.339 240.925 272.828 240.08 307H502Z" fill="#CB93EE"/>
<path d="M402.51 307H405L469.11 223.65C468.67 223.14 468.21 222.65 467.76 222.14L402.51 307Z" fill="white"/>
<path d="M352.51 307H355L438.76 198.11C438.19 197.76 437.61 197.42 437.03 197.11L352.51 307Z" fill="white"/>
<path d="M377.51 307H380L454.85 209.69C454.34 209.26 453.85 208.83 453.31 208.41L377.51 307Z" fill="white"/>
<path d="M490.65 257.42L452.51 307H455L491.55 259.5C491.26 258.82 491 258.12 490.65 257.42Z" fill="white"/>
<path d="M427.51 307H430L481.43 240.14C481.06 239.54 480.67 238.94 480.28 238.35L427.51 307Z" fill="white"/>
<path d="M327.51 307H330L420.8 189L418.87 188.23L327.51 307Z" fill="white"/>
<path d="M477.51 307H480L498.73 282.65C498.55 281.8 498.36 280.95 498.17 280.1L477.51 307Z" fill="white"/>
<path d="M241.32 289.05C241.1 290.39 240.9 291.74 240.73 293.05L321 188.74C319.74 189.26 318.49 189.74 317.24 190.34L241.32 289.05Z" fill="white"/>
<path d="M302.51 307H305L400.8 182.5L398.65 182.01L302.51 307Z" fill="white"/>
<path d="M252.51 307H255L352.5 180.25C351.5 180.38 350.6 180.52 349.65 180.68L252.51 307Z" fill="white"/>
<path d="M277.51 307H280L378.29 179.23C377.48 179.23 376.67 179.15 375.85 179.11L277.51 307Z" fill="white"/>
<path d="M446 383C445.735 383 445.48 382.895 445.293 382.707C445.105 382.52 445 382.265 445 382L443.75 307C443.75 306.735 443.855 306.48 444.043 306.293C444.23 306.105 444.485 306 444.75 306C445.015 306 445.27 306.105 445.457 306.293C445.645 306.48 445.75 306.735 445.75 307L447 382C447 382.265 446.895 382.52 446.707 382.707C446.52 382.895 446.265 383 446 383Z" fill="black"/>
<path d="M214 190C213.633 190.001 213.272 189.9 212.958 189.71C212.644 189.519 212.389 189.246 212.22 188.92L195.22 155.92C195.099 155.686 195.026 155.431 195.003 155.169C194.981 154.907 195.011 154.643 195.091 154.392C195.171 154.141 195.299 153.909 195.469 153.708C195.639 153.506 195.846 153.341 196.08 153.22C196.314 153.099 196.569 153.026 196.831 153.003C197.093 152.981 197.357 153.011 197.608 153.091C197.859 153.171 198.091 153.299 198.293 153.469C198.494 153.639 198.659 153.846 198.78 154.08L213.92 183.48L252.19 102.15C252.298 101.907 252.454 101.689 252.648 101.507C252.842 101.325 253.07 101.184 253.319 101.091C253.569 100.999 253.834 100.957 254.099 100.968C254.365 100.979 254.626 101.043 254.866 101.156C255.107 101.269 255.322 101.429 255.5 101.626C255.679 101.823 255.816 102.054 255.903 102.305C255.991 102.556 256.028 102.822 256.012 103.087C255.996 103.352 255.928 103.612 255.81 103.85L215.81 188.85C215.652 189.188 215.402 189.474 215.089 189.678C214.776 189.881 214.413 189.992 214.04 190H214Z" fill="#47CEC0"/>
<path d="M637 303.5H546C545.602 303.5 545.221 303.342 544.939 303.061C544.658 302.779 544.5 302.398 544.5 302C544.5 301.602 544.658 301.221 544.939 300.939C545.221 300.658 545.602 300.5 546 300.5H637C637.398 300.5 637.779 300.658 638.061 300.939C638.342 301.221 638.5 301.602 638.5 302C638.5 302.398 638.342 302.779 638.061 303.061C637.779 303.342 637.398 303.5 637 303.5Z" fill="#FCE054"/>
<path d="M637.5 355H546.5C546.102 355 545.721 354.842 545.439 354.561C545.158 354.279 545 353.898 545 353.5C545 353.102 545.158 352.721 545.439 352.439C545.721 352.158 546.102 352 546.5 352H637.5C637.898 352 638.279 352.158 638.561 352.439C638.842 352.721 639 353.102 639 353.5C639 353.898 638.842 354.279 638.561 354.561C638.279 354.842 637.898 355 637.5 355Z" fill="#FCE054"/>
<path d="M153.5 361H62.5C62.1022 361 61.7206 360.842 61.4393 360.561C61.158 360.279 61 359.898 61 359.5C61 359.102 61.158 358.721 61.4393 358.439C61.7206 358.158 62.1022 358 62.5 358H153.5C153.898 358 154.279 358.158 154.561 358.439C154.842 358.721 155 359.102 155 359.5C155 359.898 154.842 360.279 154.561 360.561C154.279 360.842 153.898 361 153.5 361Z" fill="#FCE054"/>
<path d="M153.5 408H62.5C62.1022 408 61.7206 407.842 61.4393 407.561C61.158 407.279 61 406.898 61 406.5C61 406.102 61.158 405.721 61.4393 405.439C61.7206 405.158 62.1022 405 62.5 405H153.5C153.898 405 154.279 405.158 154.561 405.439C154.842 405.721 155 406.102 155 406.5C155 406.898 154.842 407.279 154.561 407.561C154.279 407.842 153.898 408 153.5 408Z" fill="#FCE054"/>
<path d="M553.5 413.5C551.918 413.5 550.371 413.031 549.055 412.152C547.74 411.273 546.715 410.023 546.109 408.561C545.504 407.1 545.345 405.491 545.654 403.939C545.962 402.387 546.724 400.962 547.843 399.843C548.962 398.724 550.387 397.962 551.939 397.654C553.491 397.345 555.1 397.503 556.562 398.109C558.023 398.714 559.273 399.74 560.152 401.055C561.031 402.371 561.5 403.918 561.5 405.5C561.5 407.622 560.657 409.657 559.157 411.157C557.657 412.657 555.622 413.5 553.5 413.5ZM553.5 399.5C552.313 399.5 551.153 399.852 550.167 400.511C549.18 401.17 548.411 402.108 547.957 403.204C547.503 404.3 547.384 405.507 547.615 406.671C547.847 407.834 548.418 408.904 549.257 409.743C550.096 410.582 551.166 411.153 552.329 411.385C553.493 411.616 554.7 411.497 555.796 411.043C556.893 410.589 557.829 409.82 558.489 408.833C559.148 407.847 559.5 406.687 559.5 405.5C559.5 403.909 558.868 402.383 557.743 401.257C556.617 400.132 555.091 399.5 553.5 399.5Z" fill="#CB93EE"/>
<path d="M622 504C620.813 504 619.653 503.648 618.667 502.989C617.68 502.33 616.911 501.392 616.457 500.296C616.003 499.2 615.884 497.993 616.115 496.829C616.347 495.666 616.918 494.596 617.757 493.757C618.596 492.918 619.666 492.347 620.83 492.115C621.993 491.884 623.2 492.003 624.296 492.457C625.393 492.911 626.33 493.68 626.989 494.667C627.648 495.653 628 496.813 628 498C628 499.591 627.368 501.117 626.243 502.243C625.118 503.368 623.591 504 622 504ZM622 494C621.209 494 620.436 494.235 619.778 494.674C619.12 495.114 618.607 495.738 618.305 496.469C618.002 497.2 617.923 498.004 618.077 498.78C618.231 499.556 618.612 500.269 619.172 500.828C619.731 501.388 620.444 501.769 621.22 501.923C621.996 502.077 622.8 501.998 623.531 501.696C624.262 501.393 624.886 500.88 625.326 500.222C625.766 499.564 626 498.791 626 498C626 496.939 625.579 495.922 624.828 495.172C624.078 494.421 623.061 494 622 494Z" fill="#CB93EE"/>
<path d="M160 500C159.567 500 159.146 499.86 158.8 499.6C158.454 499.34 158.201 498.975 158.08 498.56L151.08 474.56C151.006 474.308 150.983 474.044 151.012 473.783C151.04 473.522 151.12 473.269 151.246 473.038C151.373 472.808 151.543 472.605 151.748 472.44C151.953 472.276 152.188 472.154 152.44 472.08C152.692 472.006 152.956 471.983 153.217 472.012C153.479 472.04 153.731 472.12 153.962 472.246C154.192 472.373 154.395 472.543 154.56 472.748C154.724 472.953 154.847 473.188 154.92 473.44L161.92 497.44C162.069 497.949 162.009 498.497 161.754 498.962C161.499 499.427 161.069 499.772 160.56 499.92C160.378 499.97 160.189 499.997 160 500Z" fill="#47CEC0"/>
<path d="M591 250C590.649 250 590.304 249.907 590.001 249.731C589.697 249.556 589.445 249.303 589.27 248.999C589.094 248.695 589.002 248.35 589.002 247.999C589.002 247.649 589.095 247.304 589.27 247L600.27 228C600.547 227.565 600.981 227.253 601.482 227.13C601.983 227.008 602.512 227.083 602.959 227.341C603.405 227.6 603.735 228.02 603.879 228.516C604.022 229.011 603.969 229.543 603.73 230L592.73 249C592.555 249.304 592.302 249.556 591.999 249.732C591.695 249.907 591.351 250 591 250Z" fill="#47CEC0"/>
<path d="M491 570L499.85 617.16L533.48 617.06L541 570H491Z" fill="white"/>
<path d="M507 517C497.79 521.6 493 541 499 553C505 565 508.71 570 508.71 570H525.53L531 557C531 557 545 550 546 540C547 530 534 531 528 541C528 541 534 531 529 522C524 513 515 513 507 517Z" fill="#47CEC0"/>
<path d="M509 528C508.815 527.999 508.634 527.948 508.477 527.851C508.32 527.754 508.193 527.615 508.11 527.45L506.11 523.45C506.039 523.332 505.993 523.201 505.975 523.065C505.957 522.928 505.968 522.79 506.006 522.658C506.044 522.525 506.109 522.403 506.197 522.297C506.284 522.191 506.393 522.104 506.516 522.042C506.638 521.98 506.772 521.944 506.91 521.936C507.047 521.928 507.184 521.949 507.313 521.996C507.442 522.044 507.56 522.118 507.659 522.213C507.759 522.308 507.837 522.423 507.89 522.55L509.89 526.55C510.009 526.786 510.029 527.06 509.946 527.311C509.864 527.562 509.685 527.77 509.45 527.89C509.312 527.964 509.157 528.002 509 528Z" fill="white"/>
<path d="M517 539H516.78C516.651 538.972 516.529 538.918 516.421 538.842C516.313 538.766 516.221 538.67 516.15 538.558C516.079 538.447 516.031 538.322 516.009 538.192C515.987 538.062 515.99 537.929 516.02 537.8L518.02 528.8C518.078 528.535 518.24 528.304 518.468 528.157C518.697 528.011 518.975 527.962 519.24 528.02C519.505 528.078 519.736 528.24 519.883 528.468C520.029 528.697 520.078 528.975 520.02 529.24L518.02 538.24C517.965 538.465 517.832 538.664 517.646 538.803C517.46 538.942 517.232 539.011 517 539Z" fill="white"/>
<path d="M536 545C535.735 545 535.48 544.895 535.293 544.707C535.105 544.52 535 544.265 535 544V539C535 538.735 535.105 538.48 535.293 538.293C535.48 538.105 535.735 538 536 538C536.265 538 536.52 538.105 536.707 538.293C536.895 538.48 537 538.735 537 539V544C537 544.265 536.895 544.52 536.707 544.707C536.52 544.895 536.265 545 536 545Z" fill="white"/>
<path d="M533 550H528C527.735 550 527.48 549.895 527.293 549.707C527.105 549.52 527 549.265 527 549C527 548.735 527.105 548.48 527.293 548.293C527.48 548.105 527.735 548 528 548H533C533.265 548 533.52 548.105 533.707 548.293C533.895 548.48 534 548.735 534 549C534 549.265 533.895 549.52 533.707 549.707C533.52 549.895 533.265 550 533 550Z" fill="white"/>
<path d="M503 547C502.76 547.003 502.528 546.92 502.344 546.766C502.16 546.612 502.038 546.397 502 546.16L501 540.16C500.979 540.029 500.984 539.895 501.015 539.765C501.046 539.636 501.102 539.514 501.18 539.406C501.258 539.298 501.356 539.207 501.47 539.137C501.583 539.068 501.709 539.021 501.84 539C501.971 538.979 502.106 538.984 502.235 539.015C502.364 539.046 502.486 539.102 502.594 539.18C502.702 539.258 502.793 539.356 502.863 539.47C502.932 539.583 502.979 539.709 503 539.84L504 545.84C504.021 545.97 504.017 546.103 503.987 546.231C503.957 546.36 503.901 546.481 503.824 546.588C503.747 546.694 503.65 546.785 503.537 546.854C503.425 546.923 503.3 546.969 503.17 546.99L503 547Z" fill="white"/>
<path d="M511 554C510.873 554 510.748 553.977 510.63 553.93C510.508 553.881 510.396 553.809 510.302 553.718C510.208 553.626 510.132 553.517 510.08 553.396C510.028 553.275 510.001 553.146 509.999 553.014C509.997 552.883 510.021 552.752 510.07 552.63L512.07 547.63C512.168 547.383 512.36 547.186 512.604 547.081C512.848 546.976 513.123 546.972 513.37 547.07C513.617 547.168 513.814 547.36 513.919 547.604C514.024 547.848 514.028 548.123 513.93 548.37L511.93 553.37C511.856 553.556 511.728 553.716 511.562 553.828C511.396 553.94 511.2 554 511 554Z" fill="white"/>
<path d="M521 562C520.868 562.001 520.738 561.976 520.616 561.926C520.494 561.876 520.383 561.803 520.29 561.71L517.29 558.71C517.102 558.522 516.996 558.266 516.996 558C516.996 557.734 517.102 557.478 517.29 557.29C517.478 557.102 517.734 556.996 518 556.996C518.266 556.996 518.522 557.102 518.71 557.29L521.71 560.29C521.804 560.383 521.878 560.494 521.929 560.615C521.98 560.737 522.006 560.868 522.006 561C522.006 561.132 521.98 561.263 521.929 561.385C521.878 561.506 521.804 561.617 521.71 561.71C521.617 561.803 521.506 561.876 521.384 561.926C521.262 561.976 521.132 562.001 521 562Z" fill="white"/>
<path d="M521 550C520.873 550 520.748 549.977 520.63 549.93C520.508 549.881 520.396 549.809 520.302 549.718C520.208 549.626 520.132 549.517 520.08 549.396C520.028 549.275 520.001 549.146 519.999 549.014C519.997 548.883 520.021 548.752 520.07 548.63L522.07 543.63C522.168 543.383 522.36 543.186 522.604 543.081C522.848 542.976 523.123 542.972 523.37 543.07C523.617 543.168 523.814 543.36 523.919 543.604C524.024 543.848 524.028 544.123 523.93 544.37L521.93 549.37C521.856 549.556 521.728 549.716 521.562 549.828C521.396 549.94 521.2 550 521 550Z" fill="white"/>
<path d="M492.63 578.69H539.61L539.06 582.16H493.28L492.63 578.69Z" fill="#EC87BF"/>
<path d="M225.15 553.28H260.73V617.83L225 618L225.15 553.28Z" fill="white"/>
<path d="M376 618L376.38 544.38L416 544C416 544 420.86 455.42 376.38 451C331.9 446.58 301.69 451 275 451C248.31 451 225 477.42 225 513C225 548.58 225.15 553.28 225.15 553.28H260.73V615.55" fill="#FCE054"/>
<path d="M377 618.01H375L375.38 543.41L415.04 543.03C415.38 533.57 416.88 456.03 376.28 452.03C345.6 448.96 321.94 450.14 301.07 451.18C291.91 451.63 283.26 452.06 275 452.06C248 452.06 226 479.42 226 513.06C226 540.65 226.09 549.71 226.13 552.34H261.73V615.61H259.73V554.28H224.18V553.28C224.18 553.28 224.03 548.16 224.03 512.97C224.03 478.23 246.91 449.97 275.03 449.97C283.24 449.97 291.87 449.54 301.03 449.09C321.96 448.09 345.7 446.87 376.53 449.95C395.2 451.82 408.12 468.76 413.9 498.95C416.549 513.822 417.605 528.934 417.05 544.03V544.97L377.47 545.35L377 618.01Z" fill="black"/>
<path d="M293.92 450.5C293.92 450.5 284 456.04 294 464.04C304 472.04 314.34 473.04 317.17 466.04C317.17 466.04 325 475.04 336 464.04C347 453.04 334.15 449.04 334.15 449.04" fill="white"/>
<path d="M309.47 471.69C304.74 471.69 298.95 469.24 293.38 464.78C289.94 462.03 288.32 459.21 288.56 456.37C288.91 452.16 293.25 449.69 293.43 449.59C293.544 449.524 293.67 449.482 293.801 449.465C293.932 449.448 294.064 449.457 294.192 449.491C294.319 449.526 294.438 449.585 294.543 449.665C294.647 449.746 294.734 449.846 294.8 449.96C294.866 450.074 294.908 450.2 294.925 450.331C294.942 450.462 294.933 450.594 294.899 450.722C294.864 450.849 294.805 450.968 294.725 451.072C294.644 451.177 294.544 451.264 294.43 451.33C294.35 451.38 290.82 453.42 290.57 456.54C290.4 458.67 291.77 460.92 294.64 463.22C300.86 468.22 307.49 470.55 311.95 469.39C312.922 469.166 313.824 468.705 314.576 468.049C315.327 467.394 315.906 466.563 316.26 465.63C316.324 465.469 316.428 465.327 316.563 465.218C316.698 465.109 316.859 465.038 317.03 465.01C317.199 464.982 317.372 464.997 317.533 465.055C317.694 465.113 317.838 465.211 317.95 465.34C319.766 467.213 322.225 468.328 324.83 468.46C328.24 468.58 331.77 466.83 335.31 463.29C338.57 460.04 339.92 457.19 339.31 454.83C338.49 451.46 333.89 449.98 333.84 449.96C333.587 449.88 333.375 449.704 333.253 449.468C333.13 449.233 333.106 448.958 333.185 448.705C333.265 448.452 333.442 448.24 333.677 448.118C333.912 447.995 334.187 447.97 334.44 448.05C334.67 448.12 340.15 449.87 341.25 454.34C342.02 457.43 340.48 460.92 336.7 464.71C332.7 468.71 328.7 470.6 324.7 470.46C322.045 470.336 319.503 469.35 317.46 467.65C316.91 468.562 316.185 469.355 315.327 469.985C314.469 470.615 313.494 471.069 312.46 471.32C311.484 471.575 310.479 471.699 309.47 471.69Z" fill="black"/>
<path d="M280.27 358.23C280.27 358.23 318.58 311.53 337.74 324.7C356.9 337.87 342.53 361.82 342.53 361.82L294.63 431.27C294.63 431.27 297.51 442.38 273 455C240 472 208 447 208 429C208 411 229.64 405.14 222.79 394.15C211.86 376.63 223 346 280.27 358.23Z" fill="#201000"/>
<path d="M294.63 451.63V431.27C294.63 431.27 280.27 419.27 280.27 408.52C280.27 408.52 251.53 410.92 247.93 392.95C244.33 374.98 258.71 365.41 269.49 371.4L280.27 377.4C280.27 377.4 300.62 375 299.42 353.45C299.42 353.45 332.95 331.89 346.13 361.83C359.31 391.77 364.13 418.11 356.9 427.69C349.67 437.27 334.15 438.5 334.15 438.5V451.67C334.15 451.67 321 483.96 294.63 451.63Z" fill="white"/>
<path d="M316.58 467C309.47 467 301.84 462.05 293.86 452.26C293.713 452.083 293.632 451.86 293.63 451.63V431.73C291.41 429.8 280.08 419.54 279.31 409.58C273.95 409.84 250.31 410 246.95 393.15C245.14 384.08 247.67 376.02 253.73 371.59C256.048 369.859 258.817 368.834 261.704 368.641C264.591 368.448 267.472 369.093 270 370.5L280.49 376.32C283.07 375.92 299.49 372.62 298.49 353.46C298.481 353.285 298.517 353.111 298.596 352.955C298.675 352.799 298.794 352.666 298.94 352.57C299.65 352.11 316.36 341.57 331.14 345.98C338.14 348.1 343.53 353.28 347.14 361.39C361.01 392.91 365.14 418.53 357.8 428.25C351.37 436.83 338.8 438.91 335.25 439.33V451.6C335.252 451.73 335.228 451.859 335.18 451.98C334.96 452.52 329.68 465.2 318.91 466.81C318.139 466.933 317.36 466.997 316.58 467ZM295.63 451.27C303.89 461.32 311.63 465.89 318.51 464.86C327.51 463.52 332.51 452.91 333.15 451.42V438.5C333.149 438.248 333.243 438.005 333.414 437.82C333.585 437.634 333.819 437.52 334.07 437.5C334.23 437.5 349.28 436.22 356.07 427.12C362.86 418.02 358.55 392.66 345.18 362.26C341.86 354.72 336.91 349.91 330.48 347.97C317.93 344.19 303.26 352.34 300.42 354.02C301.25 375.71 280.56 378.4 280.35 378.42C280.142 378.444 279.933 378.402 279.75 378.3L268.97 372.3C266.781 371.082 264.286 370.523 261.786 370.69C259.287 370.857 256.888 371.742 254.88 373.24C249.47 377.24 247.23 384.5 248.88 392.79C252.26 409.66 279.88 407.58 280.15 407.55C280.288 407.54 280.428 407.558 280.558 407.605C280.689 407.651 280.809 407.725 280.91 407.82C281.012 407.912 281.094 408.025 281.151 408.151C281.208 408.276 281.238 408.412 281.24 408.55C281.24 418.73 295.11 430.42 295.24 430.55C295.352 430.643 295.442 430.759 295.504 430.89C295.566 431.022 295.599 431.165 295.6 431.31L295.63 451.27Z" fill="black"/>
<path d="M337.74 399.94C337.524 399.939 337.315 399.869 337.142 399.74C336.97 399.61 336.844 399.429 336.783 399.222C336.722 399.015 336.73 398.794 336.805 398.592C336.88 398.389 337.019 398.217 337.2 398.1C340.52 395.94 342.29 393.29 342.46 390.22C342.9 382.14 332.46 373.46 332.32 373.37C332.114 373.202 331.984 372.958 331.958 372.694C331.932 372.43 332.012 372.166 332.18 371.96C332.348 371.754 332.592 371.624 332.856 371.598C333.12 371.572 333.384 371.652 333.59 371.82C334.05 372.2 344.95 381.23 344.46 390.33C344.25 394.07 342.18 397.25 338.29 399.78C338.126 399.886 337.935 399.941 337.74 399.94Z" fill="black"/>
<path d="M317.23 419.18C314.881 419.224 312.592 418.433 310.77 416.95C306.31 413.3 305.64 406.5 305.61 406.22C305.598 406.089 305.611 405.956 305.651 405.83C305.69 405.704 305.753 405.587 305.838 405.485C305.923 405.384 306.026 405.301 306.143 405.24C306.26 405.179 306.389 405.141 306.52 405.13C306.782 405.108 307.043 405.19 307.245 405.358C307.447 405.527 307.575 405.768 307.6 406.03C307.6 406.1 308.23 412.3 312.05 415.41C312.946 416.118 313.979 416.635 315.083 416.927C316.188 417.22 317.34 417.282 318.47 417.11C318.735 417.081 319.001 417.158 319.209 417.325C319.418 417.492 319.551 417.735 319.58 418C319.609 418.265 319.532 418.531 319.365 418.739C319.198 418.947 318.955 419.081 318.69 419.11C318.205 419.163 317.718 419.186 317.23 419.18Z" fill="black"/>
<path d="M262.9 392.16C262.635 392.16 262.38 392.055 262.193 391.867C262.005 391.68 261.9 391.425 261.9 391.16C261.9 391.01 261.9 387.46 264.55 385.84C266.55 384.61 269.36 384.89 272.93 386.67C273.048 386.729 273.152 386.811 273.238 386.91C273.324 387.01 273.39 387.125 273.431 387.25C273.472 387.375 273.489 387.507 273.479 387.638C273.47 387.769 273.434 387.897 273.375 388.015C273.316 388.133 273.234 388.237 273.135 388.323C273.035 388.409 272.92 388.475 272.795 388.516C272.67 388.557 272.538 388.574 272.407 388.564C272.276 388.554 272.148 388.519 272.03 388.46C269.18 387.03 266.96 386.71 265.61 387.54C263.94 388.54 263.9 391.14 263.9 391.16C263.9 391.425 263.795 391.68 263.607 391.867C263.42 392.055 263.165 392.16 262.9 392.16Z" fill="black"/>
<path d="M299.83 367.01C299.631 367.011 299.437 366.953 299.271 366.843C299.106 366.734 298.977 366.577 298.901 366.393C298.824 366.21 298.805 366.008 298.844 365.813C298.883 365.619 298.979 365.44 299.12 365.3C300.947 363.618 303.327 362.664 305.81 362.62C306.075 362.62 306.33 362.725 306.517 362.913C306.705 363.1 306.81 363.355 306.81 363.62C306.81 363.885 306.705 364.14 306.517 364.327C306.33 364.515 306.075 364.62 305.81 364.62C303.855 364.663 301.981 365.408 300.53 366.72C300.344 366.905 300.092 367.009 299.83 367.01Z" fill="black"/>
<path d="M307.21 376.19C308.204 376.19 309.01 375.384 309.01 374.39C309.01 373.396 308.204 372.59 307.21 372.59C306.216 372.59 305.41 373.396 305.41 374.39C305.41 375.384 306.216 376.19 307.21 376.19Z" fill="#201000"/>
<path d="M335.95 367.81C336.944 367.81 337.75 367.004 337.75 366.01C337.75 365.016 336.944 364.21 335.95 364.21C334.956 364.21 334.15 365.016 334.15 366.01C334.15 367.004 334.956 367.81 335.95 367.81Z" fill="#201000"/>
<path d="M330 356.23C329.868 356.231 329.738 356.206 329.616 356.156C329.494 356.106 329.383 356.033 329.29 355.94C329.104 355.753 328.999 355.499 328.999 355.235C328.999 354.971 329.104 354.717 329.29 354.53C330.74 353.08 334.36 350.95 337.74 353.2C337.961 353.347 338.115 353.576 338.168 353.837C338.22 354.098 338.167 354.369 338.02 354.59C337.873 354.811 337.644 354.965 337.383 355.018C337.122 355.07 336.851 355.017 336.63 354.87C333.77 352.97 330.83 355.82 330.71 355.94C330.617 356.033 330.506 356.106 330.384 356.156C330.262 356.206 330.132 356.231 330 356.23Z" fill="black"/>
<path d="M277 396C276.796 396.001 276.596 395.939 276.428 395.822C276.26 395.706 276.132 395.541 276.06 395.35C270.41 380.29 258.27 381.97 258.15 381.99C258.019 382.01 257.885 382.003 257.756 381.971C257.627 381.939 257.506 381.882 257.399 381.803C257.292 381.724 257.202 381.625 257.134 381.511C257.065 381.397 257.02 381.271 257 381.14C256.98 381.009 256.987 380.875 257.019 380.746C257.051 380.617 257.108 380.496 257.187 380.389C257.266 380.282 257.365 380.192 257.479 380.124C257.593 380.055 257.719 380.01 257.85 379.99C257.99 379.99 271.72 378.06 277.94 394.63C277.986 394.753 278.008 394.885 278.003 395.016C277.999 395.148 277.968 395.278 277.913 395.398C277.858 395.518 277.78 395.625 277.684 395.715C277.587 395.805 277.474 395.874 277.35 395.92C277.239 395.968 277.121 395.995 277 396Z" fill="black"/>
<path d="M225 619C224.735 619 224.48 618.895 224.293 618.707C224.105 618.52 224 618.265 224 618L224.15 549.65C224.15 549.385 224.255 549.13 224.443 548.943C224.63 548.755 224.885 548.65 225.15 548.65C225.415 548.65 225.67 548.755 225.857 548.943C226.045 549.13 226.15 549.385 226.15 549.65L226 618C226 618.265 225.895 618.52 225.707 618.707C225.52 618.895 225.265 619 225 619Z" fill="black"/>
<path d="M376.38 544.38L402 544C402 544 406 461 410 423C411.43 409.45 422.68 395.73 430 391C443 382.62 468 395 458 425C449.5 450.49 469 617 421.89 617.19C379.77 617.36 376 544 376 544" fill="white"/>
<path d="M421.74 618.19C404.12 618.19 390.45 605.33 382.2 580.98C378.322 569.005 375.904 556.605 375 544.05C374.99 543.839 375.048 543.631 375.164 543.454C375.28 543.278 375.449 543.143 375.647 543.069C375.844 542.994 376.06 542.984 376.264 543.04C376.468 543.096 376.648 543.215 376.78 543.38L401.05 543.01C401.5 533.73 405.28 458.32 409.05 422.9C410.48 409.22 421.85 395.1 429.5 390.16C436.06 385.93 445.44 386.69 452.31 392.02C456.56 395.31 465.71 405.15 458.99 425.32C456.51 432.74 456.46 453.27 456.4 477.05C456.24 536.55 456.03 618.05 421.93 618.19H421.74ZM377.1 545.37C377.92 555.52 384.4 616.19 421.74 616.19H421.88C454 616.06 454.21 532.4 454.36 477.04C454.42 452.11 454.47 432.41 457.05 424.68C463.37 405.73 454.95 396.63 451.05 393.6C444.84 388.78 436.41 388.06 430.55 391.84C423.24 396.56 412.38 410.05 411 423.1C407 460.64 403 543.22 403 544.05C403 544.315 402.895 544.57 402.707 544.757C402.52 544.945 402.265 545.05 402 545.05L377.1 545.37Z" fill="black"/>
<path d="M401 572C400.735 572 400.48 571.895 400.293 571.707C400.105 571.52 400 571.265 400 571L401.09 542.22C401.099 541.955 401.213 541.704 401.408 541.523C401.602 541.342 401.86 541.246 402.125 541.255C402.39 541.264 402.641 541.379 402.822 541.573C403.003 541.767 403.099 542.025 403.09 542.29L402 571.04C401.99 571.298 401.88 571.542 401.693 571.721C401.507 571.9 401.258 572 401 572Z" fill="black"/>
<path d="M370 504C370 504 376 530 376 549L370 504Z" fill="white"/>
<path d="M376 550C375.735 550 375.48 549.895 375.293 549.707C375.105 549.52 375 549.265 375 549C375 530.33 369.09 504.48 369 504.22C368.966 503.973 369.026 503.722 369.168 503.517C369.309 503.312 369.522 503.167 369.765 503.111C370.008 503.054 370.263 503.091 370.48 503.213C370.698 503.335 370.862 503.533 370.94 503.77C371 504.04 376.94 530.1 376.94 549C376.94 549.255 376.843 549.501 376.669 549.687C376.494 549.873 376.255 549.985 376 550Z" fill="black"/>
<path d="M447.21 410.65C443.21 412.65 444.21 419.65 449.21 417.65C454.21 415.65 470.21 411.65 468.21 407.65C466.21 403.65 459.21 405.65 454.21 407.65C449.21 409.65 447.21 410.65 447.21 410.65Z" fill="white"/>
<path d="M447.56 419.01C446.839 419.016 446.132 418.81 445.527 418.417C444.922 418.024 444.447 417.462 444.16 416.8C443.646 415.518 443.628 414.09 444.111 412.795C444.593 411.501 445.542 410.433 446.77 409.8C446.85 409.8 448.86 408.8 453.84 406.8C462.15 403.47 467.28 403.63 469.11 407.28C469.28 407.613 469.374 407.98 469.384 408.353C469.395 408.727 469.321 409.098 469.17 409.44C467.98 412.31 461.59 414.62 454 417.12C452.19 417.72 450.63 418.23 449.58 418.65C448.936 418.898 448.25 419.02 447.56 419.01ZM447.66 411.55C446.885 411.954 446.287 412.629 445.979 413.446C445.671 414.263 445.675 415.165 445.99 415.98C446.58 417.3 447.87 417.11 448.84 416.73C449.81 416.35 451.53 415.73 453.37 415.15C458.24 413.55 466.37 410.86 467.37 408.6C467.409 408.523 467.43 408.437 467.43 408.35C467.43 408.263 467.409 408.177 467.37 408.1C465.7 404.76 458.67 406.97 454.63 408.58C449.77 410.53 447.75 411.53 447.71 411.58L447.66 411.55Z" fill="black"/>
<path d="M445.21 402.65C441.21 404.65 442.21 411.65 447.21 409.65C452.21 407.65 468.21 403.65 466.21 399.65C464.21 395.65 457.21 397.65 452.21 399.65C447.21 401.65 445.21 402.65 445.21 402.65Z" fill="white"/>
<path d="M445.56 411.01C444.839 411.016 444.132 410.81 443.527 410.417C442.922 410.024 442.447 409.462 442.16 408.8C441.646 407.518 441.628 406.09 442.111 404.795C442.593 403.501 443.542 402.433 444.77 401.8C444.85 401.8 446.86 400.8 451.84 398.8C460.15 395.47 465.29 395.63 467.11 399.28C467.28 399.613 467.374 399.98 467.384 400.353C467.395 400.727 467.321 401.098 467.17 401.44C465.98 404.31 459.59 406.62 452 409.12C450.19 409.72 448.63 410.23 447.58 410.65C446.936 410.898 446.25 411.02 445.56 411.01ZM445.66 403.55C444.885 403.954 444.287 404.629 443.979 405.446C443.671 406.263 443.675 407.165 443.99 407.98C444.58 409.3 445.87 409.11 446.84 408.73C447.81 408.35 449.53 407.73 451.37 407.15C456.24 405.55 464.37 402.86 465.37 400.6C465.409 400.523 465.43 400.437 465.43 400.35C465.43 400.263 465.409 400.177 465.37 400.1C463.7 396.76 456.67 398.97 452.63 400.58C447.77 402.53 445.75 403.53 445.71 403.58L445.66 403.55Z" fill="black"/>
<path d="M443.35 394.25C439.13 396.36 440.18 403.74 445.46 401.63C450.74 399.52 467.6 395.31 465.46 391.09C463.32 386.87 455.97 388.98 450.7 391.09C445.43 393.2 443.35 394.25 443.35 394.25Z" fill="white"/>
<path d="M443.72 403.01C442.969 403.017 442.233 402.803 441.603 402.393C440.974 401.984 440.479 401.399 440.18 400.71C439.63 399.367 439.604 397.866 440.107 396.505C440.611 395.144 441.608 394.021 442.9 393.36C442.99 393.31 445.11 392.26 450.36 390.16C459.09 386.67 464.48 386.83 466.36 390.64C466.534 390.986 466.63 391.365 466.642 391.752C466.655 392.139 466.582 392.524 466.43 392.88C465.18 395.88 458.43 398.31 450.43 400.95C448.53 401.58 446.88 402.12 445.78 402.56C445.127 402.836 444.429 402.989 443.72 403.01ZM443.79 395.15C442.961 395.582 442.321 396.304 441.992 397.179C441.664 398.054 441.67 399.019 442.01 399.89C442.51 401.01 443.6 401.3 445.09 400.71C446.25 400.24 447.92 399.71 449.86 399.05C455 397.35 463.61 394.51 464.61 392.11C464.657 392.022 464.682 391.925 464.682 391.825C464.682 391.726 464.657 391.628 464.61 391.54C462.92 388.15 456.33 389.93 451.11 392.02C445.89 394.11 443.82 395.13 443.79 395.15Z" fill="black"/>
<path d="M440.38 386.01C436.11 388.01 436.98 395.41 442.3 393.44C447.62 391.47 464.6 387.67 462.6 383.44C460.6 379.21 453.16 381.09 447.84 383.07C442.52 385.05 440.38 386.01 440.38 386.01Z" fill="white"/>
<path d="M440.64 394.77C439.87 394.781 439.115 394.558 438.474 394.132C437.833 393.705 437.337 393.094 437.05 392.38C436.535 391.024 436.548 389.524 437.085 388.176C437.621 386.829 438.644 385.731 439.95 385.1C440.04 385.1 442.19 384.1 447.49 382.1C456.3 378.83 461.69 379.1 463.49 382.98C463.656 383.33 463.741 383.713 463.741 384.1C463.741 384.487 463.656 384.87 463.49 385.22C462.17 388.22 455.39 390.45 447.32 392.89C445.4 393.47 443.75 393.97 442.63 394.39C441.994 394.631 441.32 394.759 440.64 394.77ZM440.8 386.91C439.959 387.321 439.299 388.028 438.948 388.896C438.598 389.763 438.58 390.73 438.9 391.61C439.37 392.74 440.46 393.06 441.9 392.5C443.08 392.06 444.76 391.56 446.71 390.97C451.9 389.4 460.58 386.77 461.64 384.4C461.684 384.31 461.707 384.21 461.707 384.11C461.707 384.009 461.684 383.91 461.64 383.82C460.03 380.4 453.41 382.01 448.14 383.97C442.87 385.93 440.79 386.9 440.75 386.91H440.8Z" fill="black"/>
<path d="M409.65 428.82C410.21 411.65 417.21 386.65 426.21 383.65C435.21 380.65 453.21 383.65 453.21 388.65C453.21 393.65 435.21 393.65 435.21 393.65C435.21 393.65 436.21 406.65 425.21 411.65" fill="white"/>
<path d="M409.65 429.82C409.385 429.82 409.13 429.715 408.943 429.527C408.755 429.34 408.65 429.085 408.65 428.82C409.21 411.82 416.04 386.03 425.9 382.75C433.27 380.29 447 381.65 452.13 385.34C452.723 385.687 453.222 386.174 453.584 386.758C453.947 387.342 454.161 388.005 454.21 388.69C454.21 393.94 440.87 394.61 436.21 394.69C436.21 398.02 435.21 408.24 425.61 412.6C425.49 412.655 425.361 412.685 425.23 412.69C425.099 412.694 424.968 412.673 424.845 412.627C424.722 412.581 424.609 412.511 424.513 412.422C424.417 412.332 424.34 412.225 424.285 412.105C424.231 411.986 424.2 411.856 424.195 411.725C424.191 411.594 424.212 411.463 424.258 411.34C424.304 411.217 424.374 411.104 424.463 411.008C424.553 410.912 424.661 410.835 424.78 410.78C435 406.14 434.23 394.27 434.2 393.78C434.188 393.642 434.206 393.504 434.25 393.373C434.295 393.242 434.366 393.122 434.46 393.02C434.553 392.919 434.666 392.839 434.792 392.784C434.917 392.729 435.053 392.7 435.19 392.7C442.05 392.7 452.19 391.43 452.19 388.7C452.19 388.02 451.51 387.39 450.94 386.98C446.7 383.92 433.84 382.21 426.51 384.65C418.43 387.35 411.21 411.06 410.63 428.9C410.61 429.148 410.499 429.379 410.318 429.549C410.136 429.719 409.898 429.816 409.65 429.82Z" fill="black"/>
<path d="M450 459C449.735 459 449.48 458.895 449.293 458.707C449.105 458.52 449 458.265 449 458V418C449 417.735 449.105 417.48 449.293 417.293C449.48 417.105 449.735 417 450 417C450.265 417 450.52 417.105 450.707 417.293C450.895 417.48 451 417.735 451 418V458C451 458.265 450.895 458.52 450.707 458.707C450.52 458.895 450.265 459 450 459Z" fill="black"/>
<path d="M450 459.5C453.049 459.5 455.52 456.254 455.52 452.25C455.52 448.246 453.049 445 450 445C446.951 445 444.48 448.246 444.48 452.25C444.48 456.254 446.951 459.5 450 459.5Z" fill="black"/>
<path d="M448.62 457.69L441.71 474H458.29L451.38 457.69H448.62Z" fill="black"/>
<path d="M265 500C265 500 260.46 519.87 260.73 559.94L265 500Z" fill="#FCE054"/>
<path d="M259.73 559.94C259.47 520.22 263.98 499.94 264.02 499.78L266.02 500.22C266.02 500.42 261.51 520.48 261.77 559.93L259.73 559.94Z" fill="black"/>
<path d="M319 493C320.657 493 322 491.657 322 490C322 488.343 320.657 487 319 487C317.343 487 316 488.343 316 490C316 491.657 317.343 493 319 493Z" fill="black"/>
<path d="M319 515C320.657 515 322 513.657 322 512C322 510.343 320.657 509 319 509C317.343 509 316 510.343 316 512C316 513.657 317.343 515 319 515Z" fill="black"/>
<path d="M279.36 358.04C279.36 358.04 271 365.04 279 381.04C287 397.04 279 382.04 279 382.04H283C280.968 377.83 279.913 373.215 279.913 368.54C279.913 363.865 280.968 359.25 283 355.04L279.36 358.04Z" fill="white"/>
<path d="M468 375C467.868 375.001 467.738 374.976 467.616 374.926C467.494 374.876 467.383 374.803 467.29 374.71C467.196 374.617 467.122 374.506 467.071 374.385C467.02 374.263 466.994 374.132 466.994 374C466.994 373.868 467.02 373.737 467.071 373.615C467.122 373.494 467.196 373.383 467.29 373.29L476.29 364.29C476.478 364.102 476.734 363.996 477 363.996C477.266 363.996 477.522 364.102 477.71 364.29C477.898 364.478 478.004 364.734 478.004 365C478.004 365.266 477.898 365.522 477.71 365.71L468.71 374.71C468.617 374.803 468.506 374.876 468.384 374.926C468.262 374.976 468.132 375.001 468 375Z" fill="black"/>
<path d="M474 388C473.869 388.009 473.737 387.992 473.612 387.951C473.487 387.909 473.372 387.843 473.272 387.757C473.072 387.582 472.949 387.335 472.93 387.07C472.911 386.805 472.999 386.543 473.173 386.342C473.348 386.142 473.595 386.019 473.86 386L487.86 384C488.125 383.963 488.394 384.033 488.608 384.194C488.822 384.355 488.963 384.595 489 384.86C489.037 385.125 488.967 385.394 488.806 385.608C488.645 385.822 488.405 385.963 488.14 386L474.14 388H474Z" fill="black"/>
<path d="M490 410H489.77L476.77 407C476.531 406.923 476.329 406.758 476.205 406.539C476.082 406.32 476.046 406.062 476.104 405.817C476.162 405.573 476.31 405.359 476.519 405.218C476.727 405.078 476.981 405.021 477.23 405.06L490.23 408.06C490.361 408.075 490.488 408.116 490.604 408.18C490.719 408.244 490.821 408.331 490.903 408.434C490.986 408.538 491.047 408.656 491.083 408.784C491.119 408.911 491.13 409.044 491.115 409.175C491.1 409.306 491.059 409.433 490.995 409.549C490.931 409.664 490.844 409.766 490.741 409.848C490.637 409.931 490.519 409.992 490.391 410.028C490.264 410.064 490.131 410.075 490 410.06V410Z" fill="black"/>
</svg>
