<svg width="700" height="700" viewBox="0 0 700 700" fill="none" xmlns="http://www.w3.org/2000/svg">
<path d="M507.864 128.999C504.106 128.999 500.433 127.885 497.308 125.797C494.184 123.709 491.748 120.742 490.31 117.27C488.872 113.798 488.496 109.978 489.229 106.293C489.962 102.607 491.772 99.2214 494.429 96.5642C497.086 93.907 500.472 92.0975 504.157 91.3644C507.843 90.6312 511.663 91.0075 515.135 92.4455C518.607 93.8836 521.574 96.3189 523.662 99.4435C525.75 102.568 526.864 106.241 526.864 109.999C526.864 115.038 524.862 119.871 521.299 123.434C517.736 126.998 512.903 128.999 507.864 128.999ZM507.864 94.9993C504.897 94.9993 501.997 95.879 499.53 97.5272C497.064 99.1754 495.141 101.518 494.006 104.259C492.87 107 492.573 110.016 493.152 112.926C493.731 115.835 495.16 118.508 497.257 120.606C499.355 122.704 502.028 124.132 504.937 124.711C507.847 125.29 510.863 124.993 513.604 123.857C516.345 122.722 518.688 120.799 520.336 118.333C521.984 115.866 522.864 112.966 522.864 109.999C522.864 106.021 521.283 102.206 518.47 99.3927C515.657 96.5796 511.842 94.9993 507.864 94.9993Z" fill="#FCE054"/>
<path d="M175.364 631.999C173.089 631.999 170.866 631.325 168.975 630.061C167.084 628.798 165.61 627.001 164.739 624.9C163.869 622.799 163.641 620.486 164.085 618.256C164.529 616.025 165.624 613.976 167.232 612.367C168.841 610.759 170.89 609.664 173.12 609.22C175.351 608.776 177.663 609.004 179.765 609.875C181.866 610.745 183.662 612.219 184.926 614.11C186.189 616.001 186.864 618.225 186.864 620.499C186.861 623.548 185.649 626.472 183.493 628.628C181.337 630.784 178.413 631.997 175.364 631.999ZM175.364 612.999C173.881 612.999 172.431 613.439 171.197 614.263C169.964 615.087 169.002 616.259 168.435 617.629C167.867 619 167.719 620.508 168.008 621.962C168.297 623.417 169.012 624.754 170.061 625.802C171.109 626.851 172.446 627.566 173.901 627.855C175.356 628.145 176.864 627.996 178.234 627.428C179.604 626.861 180.776 625.899 181.6 624.666C182.424 623.433 182.864 621.983 182.864 620.499C182.864 618.51 182.074 616.603 180.667 615.196C179.261 613.79 177.353 612.999 175.364 612.999Z" fill="#FCE054"/>
<path d="M195.864 249.999C195.51 249.99 195.165 249.886 194.864 249.699L168.864 233.699C168.628 233.568 168.422 233.389 168.257 233.176C168.092 232.962 167.972 232.717 167.904 232.456C167.837 232.195 167.822 231.922 167.863 231.655C167.903 231.389 167.997 231.133 168.139 230.903C168.281 230.673 168.467 230.475 168.688 230.319C168.909 230.164 169.158 230.054 169.422 229.998C169.686 229.942 169.959 229.939 170.224 229.991C170.489 230.043 170.741 230.148 170.964 230.299L196.964 246.299C197.33 246.526 197.613 246.865 197.772 247.265C197.93 247.665 197.955 248.106 197.842 248.522C197.73 248.937 197.486 249.306 197.148 249.572C196.81 249.838 196.394 249.988 195.964 249.999H195.864Z" fill="#47CEC0"/>
<path d="M604.864 596.999C604.685 597 604.507 596.976 604.334 596.929C604.08 596.86 603.843 596.741 603.635 596.58C603.428 596.419 603.254 596.218 603.124 595.99C602.994 595.761 602.91 595.509 602.878 595.248C602.845 594.987 602.864 594.723 602.934 594.469L608.934 572.469C609.074 571.957 609.413 571.522 609.874 571.26C610.335 570.997 610.882 570.929 611.394 571.069C611.906 571.21 612.341 571.548 612.603 572.009C612.866 572.471 612.934 573.017 612.794 573.529L606.794 595.529C606.678 595.952 606.426 596.325 606.077 596.59C605.729 596.856 605.302 597 604.864 596.999Z" fill="#47CEC0"/>
<path d="M110.614 110.999H237.474C247.524 110.999 252.054 98.2793 244.174 92.0593C240.72 89.3415 236.591 87.6159 232.231 87.0679C227.87 86.52 223.443 87.1704 219.424 88.9492C218.411 85.7255 216.602 82.8096 214.162 80.4714C211.723 78.1332 208.733 76.4483 205.469 75.5728C202.206 74.6974 198.774 74.6596 195.492 75.4631C192.21 76.2665 189.184 77.8853 186.694 80.1693C182.965 75.6642 178.125 72.211 172.651 70.1514C167.178 68.0919 161.262 67.4974 155.488 68.4268C149.714 69.3563 144.284 71.7773 139.733 75.4505C135.183 79.1237 131.67 83.9216 129.544 89.3692C125.455 87.3526 120.879 86.535 116.345 87.0111C111.811 87.4871 107.505 89.2374 103.924 92.0593C96.044 98.2893 100.574 110.999 110.614 110.999Z" fill="#47CEC0"/>
<path d="M459.234 522.999C453.95 522.991 448.729 524.152 443.947 526.399C439.165 528.647 434.939 531.925 431.574 535.999C428.911 533.556 425.675 531.825 422.165 530.965C418.655 530.106 414.985 530.146 411.495 531.082C408.005 532.019 404.808 533.821 402.199 536.322C399.591 538.823 397.656 541.942 396.574 545.389C392.279 543.484 387.545 542.786 382.882 543.371C378.22 543.956 373.805 545.801 370.114 548.709C361.684 555.369 366.524 568.969 377.274 568.969H474.274C500.104 566.969 492.744 545.839 492.744 545.839C490.11 539.099 485.501 533.312 479.522 529.236C473.542 525.161 466.47 522.987 459.234 522.999Z" fill="#47CEC0"/>
<path d="M669.864 390.209C665.528 386.798 660.344 384.633 654.87 383.946C649.396 383.259 643.839 384.076 638.794 386.309C637.52 382.262 635.246 378.602 632.182 375.668C629.118 372.734 625.363 370.621 621.264 369.524C617.166 368.427 612.857 368.382 608.737 369.394C604.617 370.405 600.819 372.44 597.694 375.309C593.014 369.651 586.937 365.313 580.065 362.726C573.193 360.139 565.764 359.392 558.515 360.559C551.265 361.726 544.446 364.766 538.733 369.379C533.02 373.992 528.612 380.018 525.944 386.859C525.944 386.859 517.294 411.719 547.624 414.019H661.464C674.044 413.999 679.734 398.029 669.864 390.209Z" fill="#47CEC0"/>
<path d="M188.134 462.659C184.064 459.451 179.195 457.415 174.053 456.77C168.911 456.125 163.69 456.896 158.954 458.999C157.759 455.197 155.624 451.757 152.747 448.999C149.869 446.241 146.342 444.253 142.493 443.22C138.643 442.187 134.595 442.142 130.723 443.09C126.852 444.037 123.282 445.946 120.344 448.639C115.946 443.328 110.238 439.257 103.784 436.829C97.3305 434.401 90.3545 433.701 83.5467 434.797C76.7389 435.893 70.3353 438.747 64.9696 443.078C59.6038 447.409 55.4619 453.066 52.9538 459.489C48.1299 457.109 42.7305 456.143 37.3806 456.704C32.0306 457.265 26.949 459.33 22.7238 462.659C13.4338 470.009 18.7839 484.999 30.6239 484.999H180.244C192.084 484.999 197.434 469.999 188.134 462.659Z" fill="#47CEC0"/>
<path d="M241.014 507.439C240.756 507.416 240.5 507.494 240.299 507.657C240.097 507.819 239.966 508.053 239.934 508.309C238.044 523.419 229.304 549.309 191.994 552.549C173.994 554.139 159.994 548.549 149.594 535.549C148.514 534.979 146.594 533.629 143.594 530.489C152.384 544.599 165.524 554.789 186.184 554.779C188.104 554.779 190.094 554.699 192.184 554.519C222.554 551.839 234.674 534.719 239.444 519.889L238.004 553.479C237.999 553.611 238.019 553.742 238.065 553.865C238.11 553.988 238.179 554.102 238.269 554.198C238.358 554.295 238.465 554.373 238.584 554.428C238.704 554.483 238.833 554.514 238.964 554.519C239.095 554.525 239.226 554.504 239.35 554.458C239.473 554.413 239.586 554.344 239.683 554.255C239.779 554.165 239.857 554.058 239.912 553.939C239.968 553.82 239.999 553.691 240.004 553.559L241.934 508.449C241.937 508.196 241.844 507.95 241.673 507.763C241.502 507.575 241.267 507.459 241.014 507.439Z" fill="black"/>
<path d="M551.064 525.139C540.624 541.729 527.934 548.789 512.354 546.699C479.144 542.219 431.494 455.829 431.014 454.959C430.907 454.761 430.736 454.605 430.529 454.516C430.322 454.427 430.091 454.411 429.874 454.469C429.656 454.528 429.464 454.659 429.329 454.84C429.195 455.022 429.126 455.243 429.134 455.469L432.264 553.969C432.264 554.234 432.369 554.489 432.557 554.676C432.744 554.864 432.999 554.969 433.264 554.969C433.529 554.969 433.783 554.864 433.971 554.676C434.158 554.489 434.264 554.234 434.264 553.969L431.264 459.559C440.814 476.329 481.444 544.559 512.094 548.739C513.884 548.984 515.688 549.107 517.494 549.109C535.744 549.109 548.084 535.899 556.864 518.859L551.064 525.139Z" fill="black"/>
<path d="M677.774 272.409C679.364 267.109 675.624 262.989 672.834 261.139C673.105 260.395 673.196 259.598 673.099 258.812C673.001 258.026 672.718 257.275 672.274 256.619C669.164 252.069 657.814 251.279 647.944 251.509C655.854 242.099 654.344 230.139 643.604 218.329C636.524 210.539 628.974 209.179 624.604 210.329C622.034 211.039 620.254 212.699 619.844 214.759C619.81 215.005 619.81 215.254 619.844 215.499L619.494 215.179C618.264 214.179 616.384 213.979 613.884 214.519C599.444 217.639 564.584 245.979 554.724 265.399C546.874 280.839 509.114 404.049 502.724 424.939C473.344 347.179 461.074 319.379 427.364 305.939C396.704 293.719 360.004 286.539 359.634 286.469C359.484 286.44 359.33 286.446 359.182 286.486C359.035 286.526 358.899 286.599 358.784 286.699C345.264 298.699 313.784 293.449 306.634 285.609C306.511 285.472 306.353 285.371 306.176 285.318C306 285.265 305.812 285.262 305.634 285.309C305.394 285.359 281.294 291.189 247.504 302.019C232.504 306.829 220.584 313.409 211.174 329.929C202.824 344.579 196.084 367.519 188.834 406.129C183.744 382.539 162.124 283.999 153.004 269.969C144.254 256.509 107.304 220.489 90.7539 220.069C89.4839 219.955 88.2058 220.171 87.0441 220.697C85.8823 221.222 84.8763 222.04 84.1239 223.069C81.4539 226.749 88.7338 233.299 96.4338 240.239C99.4916 242.833 102.365 245.637 105.034 248.629C107.454 251.699 107.034 252.629 107.034 252.779C107.034 252.929 105.464 254.359 96.1039 252.039C86.7439 249.719 77.4339 241.909 74.0339 235.739C72.8239 233.529 72.3838 231.609 72.8138 230.329C73.6738 227.729 75.8939 227.149 78.2539 226.529C80.6139 225.909 83.2539 225.229 83.8439 222.209C84.2539 220.139 82.1739 218.289 78.2739 217.209C70.2739 215.099 57.4839 216.939 53.9139 227.649C50.6639 237.399 59.2139 246.989 66.1639 252.849C59.6139 252.209 52.6039 251.249 45.2839 249.989H45.1139C44.8439 249.989 38.4839 249.989 35.8539 253.859C34.6139 255.679 34.4239 257.969 35.2939 260.689C32.4239 262.419 28.5239 266.379 29.8939 271.689C28.4039 272.879 24.6139 276.319 24.9639 279.999C25.1739 282.239 26.8139 284.079 29.8439 285.479C32.0939 286.479 36.3939 287.899 41.8439 289.639C60.5439 295.639 95.3439 306.799 98.8439 322.179C101.054 331.779 105.254 357.749 109.704 385.239C110.824 392.139 111.974 399.239 113.124 406.309L114.804 404.209C113.804 397.729 112.704 391.209 111.674 384.919C107.224 357.389 103.024 331.399 100.784 321.719C96.9839 305.239 62.7839 294.279 42.4039 287.719C37.0239 285.989 32.7739 284.629 30.6239 283.639C28.2939 282.559 27.0439 281.269 26.9039 279.789C26.6339 277.039 30.1839 273.849 31.5739 272.849C31.7483 272.725 31.8785 272.549 31.9451 272.345C32.0117 272.142 32.0112 271.922 31.9438 271.719C29.9438 265.609 36.6238 262.139 36.9438 261.989C37.1643 261.877 37.3353 261.687 37.4239 261.456C37.5126 261.226 37.5127 260.97 37.4239 260.739C36.4939 258.309 36.5139 256.359 37.4839 254.939C39.3739 252.169 44.3339 251.939 45.0139 251.939C53.6039 253.419 61.7639 254.479 69.2639 255.119C69.4771 255.133 69.6892 255.079 69.8691 254.964C70.0491 254.849 70.1875 254.679 70.2639 254.479C70.3413 254.279 70.352 254.059 70.2943 253.851C70.2367 253.644 70.1137 253.461 69.9438 253.329C63.2438 248.189 52.4939 238.099 55.7739 228.259C58.9339 218.769 70.5139 217.199 77.7739 219.109C80.6439 219.869 82.0339 221.039 81.8939 221.739C81.5539 223.459 80.1639 223.899 77.7539 224.529C75.3439 225.159 72.1339 225.999 70.924 229.619C70.3139 231.469 70.7839 233.889 72.2939 236.619C75.8539 243.069 85.2339 251.319 95.6339 253.889C103.394 255.809 107.434 255.779 108.724 253.779C110.014 251.779 108.134 249.169 106.654 247.299C103.929 244.211 100.981 241.327 97.8339 238.669C92.4039 233.769 84.1939 226.369 85.8339 224.149C86.4141 223.395 87.179 222.802 88.0548 222.429C88.9306 222.056 89.8877 221.915 90.8339 222.019C106.184 222.409 142.674 257.499 151.454 271.019C161.454 286.329 187.794 410.159 188.064 411.409C188.113 411.637 188.239 411.84 188.422 411.984C188.604 412.128 188.831 412.204 189.064 412.199C189.301 412.203 189.531 412.123 189.714 411.973C189.897 411.823 190.021 411.612 190.064 411.379C204.924 330.029 217.064 313.899 248.294 303.879C279.174 293.979 301.924 288.279 305.714 287.349C314.034 295.529 345.404 300.769 359.874 288.489C364.274 289.369 398.174 296.359 426.754 307.759C458.344 320.349 469.934 343.309 502.024 428.359C502.1 428.559 502.239 428.729 502.419 428.844C502.599 428.959 502.811 429.013 503.024 428.999C503.231 428.992 503.431 428.921 503.595 428.796C503.76 428.67 503.882 428.497 503.944 428.299C504.394 426.839 548.344 282.629 556.654 266.299C566.324 247.299 600.374 219.509 614.454 216.459C616.314 216.059 617.674 216.159 618.394 216.729C618.55 216.847 618.677 216.998 618.767 217.171C618.857 217.344 618.907 217.534 618.914 217.729C619.134 220.389 614.354 225.729 610.144 230.409C606.824 234.099 603.694 237.589 602.144 240.489C600.744 243.079 600.484 245.419 601.364 247.429C602.824 250.749 606.874 251.809 607.044 251.849H607.144C607.144 251.849 610.014 252.269 614.774 252.709C619.984 252.709 629.934 251.289 637.834 240.529C640.144 237.379 641.004 234.339 640.394 231.529C639.214 226.029 632.904 222.449 627.834 219.529C625.294 218.089 621.834 216.109 622.004 215.129C622.264 213.819 623.514 212.729 625.344 212.229C629.114 211.229 635.814 212.489 642.284 219.599C647.284 225.119 657.624 239.319 645.054 251.809C644.909 251.951 644.811 252.132 644.772 252.33C644.733 252.528 644.754 252.734 644.834 252.919C644.918 253.11 645.06 253.269 645.239 253.374C645.419 253.48 645.627 253.527 645.834 253.509C659.524 252.959 668.634 254.509 670.834 257.679C671.151 258.189 671.325 258.775 671.337 259.375C671.349 259.975 671.2 260.567 670.904 261.089C670.806 261.317 670.795 261.572 670.874 261.807C670.954 262.042 671.118 262.238 671.334 262.359C671.614 262.519 678.184 266.279 675.874 272.299C675.797 272.5 675.786 272.72 675.843 272.927C675.901 273.134 676.024 273.317 676.194 273.449C677.544 274.449 680.944 277.829 680.564 280.579C680.354 282.049 679.044 283.289 676.674 284.269C675.024 284.939 672.374 285.849 669.014 287.009C651.784 292.949 615.924 305.299 611.114 322.659C608.734 331.219 603.174 351.829 596.904 375.219L598.414 377.309C604.854 353.309 610.614 331.939 613.034 323.199C617.564 306.849 652.754 294.729 669.674 288.899C673.054 287.729 675.724 286.809 677.424 286.119C680.514 284.849 682.234 283.119 682.544 280.849C682.864 277.259 679.194 273.659 677.774 272.409ZM626.694 221.339C631.414 224.009 637.294 227.339 638.284 231.969C638.774 234.259 638.044 236.699 636.054 239.409C628.694 249.409 619.474 250.819 614.724 250.769C610.464 250.379 607.724 249.999 607.334 249.939C606.944 249.879 604.024 248.939 603.034 246.659C602.414 245.239 602.654 243.499 603.744 241.469C605.194 238.789 608.384 235.229 611.474 231.789C616.404 226.309 621.054 221.129 620.764 217.599C620.769 217.503 620.769 217.406 620.764 217.309C621.864 218.609 624.054 219.849 626.694 221.339Z" fill="black"/>
<path d="M133.184 286.269C133.004 286.27 132.827 286.222 132.673 286.13C132.518 286.039 132.39 285.907 132.304 285.749C122.514 267.959 101.474 276.229 100.584 276.589C100.343 276.67 100.079 276.656 99.848 276.55C99.6167 276.443 99.4345 276.253 99.3389 276.017C99.2432 275.781 99.2412 275.517 99.3332 275.28C99.4251 275.043 99.6042 274.849 99.8339 274.739C100.064 274.639 123.404 265.429 134.054 284.739C134.118 284.854 134.158 284.98 134.173 285.111C134.188 285.242 134.177 285.374 134.141 285.5C134.105 285.626 134.044 285.744 133.962 285.847C133.88 285.95 133.779 286.036 133.664 286.099C133.52 286.194 133.355 286.252 133.184 286.269Z" fill="black"/>
<path d="M67.3939 280.499C67.2327 280.499 67.0739 280.46 66.9312 280.385C66.7884 280.31 66.6657 280.202 66.5739 280.069C66.4639 279.929 61.1539 273.419 30.5739 272.679C30.3086 272.679 30.0544 272.574 29.8668 272.386C29.6793 272.199 29.5739 271.945 29.5739 271.679C29.5739 271.414 29.6793 271.16 29.8668 270.972C30.0544 270.785 30.3086 270.679 30.5739 270.679C62.7739 271.469 67.9239 278.679 68.1239 278.939C68.1971 279.049 68.248 279.172 68.2736 279.301C68.2991 279.43 68.2988 279.563 68.2728 279.693C68.2468 279.822 68.1956 279.944 68.1219 280.054C68.0483 280.163 67.9538 280.257 67.8439 280.329C67.7099 280.422 67.5555 280.48 67.3939 280.499Z" fill="black"/>
<path d="M74.424 271.159C74.2632 271.157 74.1053 271.116 73.9639 271.039C73.8339 270.969 60.524 264.039 36.034 261.769C35.9026 261.757 35.7749 261.72 35.6581 261.659C35.5413 261.598 35.4377 261.514 35.3532 261.413C35.2687 261.312 35.2049 261.195 35.1655 261.069C35.1262 260.943 35.1121 260.811 35.1239 260.679C35.1357 260.548 35.1733 260.42 35.2345 260.303C35.2957 260.187 35.3793 260.083 35.4805 259.999C35.5817 259.914 35.6985 259.85 35.8244 259.811C35.9502 259.772 36.0826 259.757 36.2139 259.769C61.1439 262.109 74.3439 268.969 74.8939 269.259C75.1286 269.383 75.3047 269.594 75.3834 269.847C75.4622 270.1 75.4371 270.375 75.3139 270.609C75.2308 270.774 75.1036 270.913 74.9466 271.01C74.7895 271.107 74.6086 271.159 74.424 271.159Z" fill="black"/>
<path d="M582.514 291.129C582.421 291.144 582.327 291.144 582.234 291.129C581.98 291.057 581.764 290.887 581.635 290.657C581.506 290.426 581.473 290.154 581.544 289.899C587.544 268.629 612.364 272.329 612.614 272.369C612.745 272.39 612.871 272.437 612.984 272.507C613.098 272.576 613.196 272.668 613.274 272.775C613.352 272.883 613.408 273.005 613.439 273.134C613.47 273.264 613.475 273.398 613.454 273.529C613.433 273.661 613.386 273.786 613.317 273.9C613.247 274.013 613.156 274.111 613.048 274.189C612.94 274.267 612.818 274.324 612.689 274.354C612.559 274.385 612.425 274.39 612.294 274.369C611.354 274.219 588.984 270.919 583.474 290.469C583.403 290.666 583.272 290.835 583.1 290.953C582.928 291.072 582.723 291.133 582.514 291.129Z" fill="black"/>
<path d="M639.964 279.559C639.747 279.556 639.536 279.483 639.364 279.349C639.159 279.192 639.022 278.962 638.983 278.707C638.944 278.451 639.005 278.191 639.154 277.979C639.374 277.679 644.814 270.749 677.034 271.359C677.299 271.359 677.554 271.465 677.741 271.652C677.929 271.84 678.034 272.094 678.034 272.359C678.034 272.625 677.929 272.879 677.741 273.066C677.554 273.254 677.299 273.359 677.034 273.359C646.334 272.759 640.844 279.109 640.794 279.179C640.696 279.304 640.569 279.403 640.425 279.47C640.28 279.536 640.123 279.566 639.964 279.559Z" fill="black"/>
<path d="M633.344 269.889C633.118 269.888 632.899 269.81 632.723 269.669C632.547 269.527 632.424 269.33 632.374 269.11C632.325 268.89 632.351 268.659 632.449 268.456C632.547 268.252 632.711 268.088 632.914 267.989C633.474 267.719 646.914 261.439 671.974 260.189C672.239 260.176 672.499 260.269 672.696 260.447C672.893 260.625 673.011 260.874 673.024 261.139C673.037 261.405 672.944 261.664 672.766 261.861C672.588 262.058 672.339 262.176 672.074 262.189C647.504 263.419 633.904 269.739 633.774 269.799C633.639 269.861 633.492 269.892 633.344 269.889Z" fill="black"/>
<path d="M313.314 141.379C313.314 141.379 285.314 130.159 295.094 107.729C304.874 85.2993 328.734 96.5192 338.544 106.329C338.544 106.329 356.764 81.0992 379.194 92.3292C401.624 103.559 394.614 123.169 394.614 123.169C394.614 123.169 432.464 107.749 443.674 128.779C454.884 149.809 443.674 166.629 443.674 166.629C443.674 166.629 467.524 243.629 348.354 228.309C250.234 215.669 313.314 141.379 313.314 141.379Z" fill="#201000"/>
<path d="M363.864 287.999L363.034 255.639C363.034 255.639 383.184 238.849 383.184 223.739C383.184 223.739 423.464 227.099 428.504 201.919C433.544 176.739 413.394 163.309 398.294 171.709L383.184 180.099C383.184 180.099 354.644 176.739 356.324 146.529C356.324 146.529 309.324 116.309 290.854 158.279C272.384 200.249 265.684 237.169 275.754 250.599C285.824 264.029 307.644 265.709 307.644 265.709L305.864 285.999L346.864 348.999C346.864 348.999 363.864 313.999 363.864 287.999Z" fill="white"/>
<path d="M346.864 349.999C346.698 350 346.534 349.959 346.387 349.881C346.24 349.802 346.116 349.688 346.024 349.549L305.024 286.549C304.9 286.36 304.843 286.135 304.864 285.909L306.564 266.599C302.064 266.089 284.054 263.329 274.954 251.199C264.954 237.889 270.854 201.259 289.954 157.869C294.954 146.619 302.354 139.429 312.084 136.499C332.624 130.319 355.894 145.059 356.874 145.689C357.022 145.784 357.143 145.916 357.223 146.072C357.304 146.229 357.342 146.403 357.334 146.579C355.794 174.189 379.794 178.579 382.994 179.059L397.814 170.829C401.283 168.893 405.237 168.002 409.201 168.263C413.165 168.523 416.969 169.925 420.154 172.299C428.514 178.409 432.004 189.549 429.494 202.119C424.814 225.529 390.634 225.119 384.164 224.799C383.354 238.919 366.854 253.689 364.064 256.089L364.874 287.969C364.874 313.899 347.944 349.049 347.774 349.409C347.696 349.569 347.577 349.705 347.43 349.803C347.282 349.901 347.111 349.959 346.934 349.969L346.864 349.999ZM306.864 285.739L346.694 346.949C349.974 339.789 362.824 310.339 362.834 288.009L362.004 255.659C362.001 255.509 362.031 255.36 362.094 255.223C362.156 255.086 362.248 254.965 362.364 254.869C362.564 254.699 382.154 238.199 382.154 223.739C382.154 223.602 382.183 223.467 382.238 223.341C382.293 223.215 382.373 223.102 382.474 223.009C382.576 222.916 382.696 222.844 382.827 222.8C382.958 222.755 383.096 222.738 383.234 222.749C383.634 222.749 422.694 225.749 427.494 201.749C429.854 189.979 426.654 179.579 418.934 173.949C416.057 171.801 412.62 170.531 409.037 170.294C405.455 170.056 401.88 170.86 398.744 172.609L383.634 180.999C383.451 181.101 383.242 181.143 383.034 181.119C382.744 181.119 353.964 177.349 355.264 147.119C351.814 145.039 330.684 133.019 312.614 138.469C303.464 141.219 296.444 148.039 291.744 158.729C272.944 201.459 266.964 237.309 276.524 250.049C286.194 262.949 307.524 264.739 307.694 264.759C307.958 264.781 308.203 264.907 308.374 265.109C308.46 265.209 308.526 265.325 308.567 265.45C308.608 265.576 308.624 265.708 308.614 265.839L306.864 285.739Z" fill="black"/>
<path d="M302.604 219.719C302.412 219.719 302.225 219.663 302.064 219.559C296.724 216.079 293.874 211.729 293.604 206.629C292.924 194.079 308.044 181.549 308.694 181.019C308.899 180.853 309.161 180.775 309.423 180.801C309.685 180.828 309.926 180.956 310.094 181.159C310.178 181.261 310.24 181.378 310.278 181.504C310.317 181.63 310.33 181.762 310.317 181.893C310.304 182.024 310.265 182.151 310.203 182.267C310.14 182.383 310.056 182.486 309.954 182.569C309.804 182.689 294.954 194.979 295.594 206.569C295.844 210.989 298.384 214.819 303.154 217.929C303.331 218.048 303.466 218.221 303.538 218.422C303.61 218.623 303.615 218.842 303.554 219.047C303.492 219.252 303.367 219.431 303.196 219.559C303.025 219.688 302.818 219.758 302.604 219.759V219.719Z" fill="black"/>
<path d="M407.524 200.399C407.259 200.399 407.004 200.294 406.817 200.106C406.629 199.919 406.524 199.665 406.524 199.399C406.524 199.399 406.474 195.539 403.934 193.979C401.934 192.739 398.674 193.179 394.544 195.249C394.426 195.308 394.298 195.344 394.167 195.353C394.036 195.363 393.904 195.347 393.779 195.305C393.654 195.264 393.539 195.199 393.439 195.113C393.34 195.027 393.258 194.922 393.199 194.804C393.14 194.687 393.104 194.559 393.095 194.428C393.085 194.296 393.102 194.164 393.143 194.04C393.184 193.915 393.25 193.799 393.336 193.7C393.422 193.6 393.526 193.518 393.644 193.459C398.514 191.029 402.324 190.629 404.994 192.279C408.484 194.439 408.524 199.189 408.524 199.389C408.525 199.521 408.5 199.653 408.451 199.775C408.401 199.898 408.327 200.009 408.234 200.103C408.142 200.197 408.031 200.271 407.909 200.322C407.787 200.373 407.656 200.399 407.524 200.399Z" fill="black"/>
<path d="M343.144 159.499C342.882 159.498 342.63 159.394 342.444 159.209C340.325 157.31 337.599 156.225 334.754 156.149C334.489 156.149 334.234 156.044 334.047 155.856C333.859 155.669 333.754 155.415 333.754 155.149C333.754 154.884 333.859 154.63 334.047 154.442C334.234 154.255 334.489 154.149 334.754 154.149C338.132 154.208 341.371 155.507 343.854 157.799C344.04 157.987 344.145 158.24 344.145 158.504C344.145 158.768 344.04 159.022 343.854 159.209C343.76 159.302 343.65 159.375 343.528 159.425C343.406 159.475 343.276 159.5 343.144 159.499Z" fill="black"/>
<path d="M320.524 152.849C320.262 152.848 320.01 152.744 319.824 152.559C319.644 152.379 315.294 148.149 311.014 150.999C310.905 151.081 310.781 151.14 310.649 151.172C310.517 151.204 310.379 151.209 310.245 151.186C310.111 151.163 309.983 151.113 309.869 151.039C309.755 150.965 309.657 150.869 309.582 150.756C309.506 150.643 309.454 150.516 309.429 150.382C309.405 150.248 309.408 150.111 309.438 149.978C309.468 149.846 309.525 149.721 309.605 149.611C309.685 149.501 309.787 149.408 309.904 149.339C314.424 146.339 319.294 149.199 321.234 151.139C321.375 151.279 321.471 151.458 321.51 151.653C321.549 151.847 321.529 152.049 321.453 152.233C321.377 152.416 321.248 152.573 321.083 152.683C320.917 152.792 320.723 152.85 320.524 152.849Z" fill="black"/>
<path d="M387.754 205.789C387.635 205.788 387.517 205.768 387.404 205.729C387.281 205.683 387.169 205.612 387.073 205.522C386.977 205.432 386.9 205.324 386.847 205.205C386.793 205.085 386.763 204.955 386.759 204.824C386.755 204.693 386.777 204.562 386.824 204.439C395.424 181.509 414.354 184.149 414.544 184.179C414.805 184.219 415.039 184.36 415.196 184.571C415.354 184.783 415.421 185.048 415.384 185.309C415.364 185.439 415.319 185.564 415.251 185.677C415.184 185.79 415.094 185.888 414.988 185.966C414.882 186.044 414.762 186.1 414.634 186.132C414.507 186.163 414.374 186.169 414.244 186.149C413.534 186.039 396.704 183.779 388.694 205.149C388.621 205.339 388.492 205.502 388.324 205.616C388.156 205.73 387.957 205.791 387.754 205.789Z" fill="black"/>
<path d="M184.403 412.029L182.423 412.289L191.041 477.916L193.021 477.656L184.403 412.029Z" fill="black"/>
<path d="M237.576 371.438L234.975 501.468L236.975 501.508L239.576 371.478L237.576 371.438Z" fill="black"/>
<path d="M431.334 380.939H429.334V461.619H431.334V380.939Z" fill="black"/>
<path d="M504.06 421.221L491.124 472.38L493.063 472.871L505.999 421.711L504.06 421.221Z" fill="black"/>
<path d="M629.864 255.999C629.599 256.016 629.337 255.928 629.138 255.752C628.938 255.577 628.816 255.329 628.799 255.064C628.782 254.799 628.87 254.538 629.046 254.338C629.221 254.138 629.469 254.016 629.734 253.999L648.524 251.439C648.789 251.405 649.057 251.477 649.269 251.64C649.481 251.803 649.619 252.044 649.654 252.309C649.688 252.575 649.616 252.843 649.453 253.054C649.29 253.266 649.049 253.405 648.784 253.439L629.994 255.999H629.864Z" fill="black"/>
<path d="M75.8638 256.999H75.6639L65.0239 254.789C64.8952 254.763 64.7729 254.712 64.664 254.638C64.5552 254.565 64.4618 254.47 64.3894 254.361C64.3169 254.251 64.2669 254.128 64.2419 254C64.2169 253.871 64.2176 253.738 64.2438 253.609C64.27 253.48 64.3217 253.356 64.3958 253.247C64.47 253.137 64.5652 253.043 64.6759 252.971C64.7865 252.898 64.9106 252.848 65.0407 252.824C65.1708 252.8 65.3044 252.801 65.4338 252.829L76.0638 255.039C76.329 255.066 76.5729 255.197 76.7416 255.403C76.9104 255.609 76.9903 255.874 76.9638 256.139C76.9373 256.405 76.8066 256.648 76.6003 256.817C76.394 256.986 76.1291 257.066 75.8638 257.039V256.999Z" fill="black"/>
<path d="M333.214 183.759C332.568 183.759 331.922 183.709 331.284 183.609C328.009 183.031 325.069 181.248 323.044 178.609C322.891 178.392 322.831 178.123 322.877 177.861C322.923 177.599 323.071 177.367 323.289 177.214C323.506 177.062 323.775 177.002 324.037 177.048C324.299 177.094 324.531 177.242 324.684 177.459C326.415 179.681 328.91 181.181 331.684 181.669C335.004 182.199 338.584 181.039 342.314 178.239C342.419 178.16 342.539 178.103 342.666 178.071C342.793 178.038 342.925 178.031 343.055 178.049C343.185 178.068 343.31 178.112 343.423 178.179C343.536 178.246 343.635 178.334 343.714 178.439C343.793 178.544 343.85 178.664 343.883 178.791C343.915 178.918 343.922 179.051 343.904 179.181C343.885 179.311 343.841 179.436 343.774 179.549C343.707 179.662 343.619 179.76 343.514 179.839C339.954 182.429 336.514 183.759 333.214 183.759Z" fill="black"/>
<path d="M298.214 180.759C297.568 180.759 296.922 180.709 296.284 180.609C293.009 180.031 290.069 178.248 288.044 175.609C287.891 175.392 287.831 175.123 287.877 174.861C287.923 174.599 288.071 174.367 288.289 174.214C288.506 174.062 288.775 174.002 289.037 174.048C289.299 174.094 289.531 174.242 289.684 174.459C291.415 176.681 293.91 178.181 296.684 178.669C300.004 179.199 303.584 178.039 307.314 175.239C307.419 175.16 307.539 175.103 307.666 175.071C307.793 175.038 307.925 175.031 308.055 175.049C308.185 175.068 308.31 175.112 308.423 175.179C308.536 175.246 308.635 175.334 308.714 175.439C308.793 175.544 308.85 175.664 308.883 175.791C308.915 175.918 308.922 176.051 308.904 176.181C308.885 176.311 308.841 176.436 308.774 176.549C308.707 176.662 308.619 176.76 308.514 176.839C304.954 179.429 301.514 180.759 298.214 180.759Z" fill="black"/>
<path d="M339.864 239.159C338.864 239.159 337.864 239.099 336.764 238.999C336.499 238.973 336.255 238.842 336.086 238.636C335.917 238.429 335.837 238.165 335.864 237.899C335.89 237.634 336.021 237.39 336.228 237.221C336.434 237.053 336.699 236.973 336.964 236.999C342.964 237.599 347.634 236.409 350.894 233.469C355.784 229.049 355.894 222.069 355.894 221.999C355.894 221.734 355.999 221.48 356.187 221.292C356.374 221.105 356.629 220.999 356.894 220.999C357.159 220.999 357.413 221.105 357.601 221.292C357.788 221.48 357.894 221.734 357.894 221.999C357.894 222.319 357.834 229.909 352.284 234.939C349.154 237.739 344.994 239.159 339.864 239.159Z" fill="black"/>
<path d="M592.124 194.719C591.842 194.722 591.565 194.645 591.325 194.497C591.085 194.349 590.892 194.136 590.769 193.882C590.645 193.629 590.596 193.346 590.627 193.065C590.658 192.785 590.768 192.52 590.944 192.299C591.364 191.769 601.244 179.299 616.944 177.679C626.944 176.619 636.944 180.179 646.584 188.249C646.89 188.504 647.083 188.87 647.12 189.266C647.156 189.663 647.034 190.058 646.779 190.364C646.524 190.671 646.158 190.863 645.762 190.9C645.365 190.936 644.97 190.814 644.664 190.559C635.614 183.019 626.394 179.699 617.264 180.669C602.834 182.199 593.424 194.029 593.334 194.149C593.19 194.331 593.006 194.478 592.796 194.577C592.586 194.676 592.356 194.724 592.124 194.719Z" fill="black"/>
<path d="M610.584 202.999C610.216 203.006 609.859 202.874 609.584 202.629C609.434 202.5 609.311 202.343 609.223 202.166C609.135 201.989 609.083 201.796 609.07 201.599C609.057 201.401 609.083 201.203 609.147 201.016C609.211 200.829 609.312 200.657 609.444 200.509C609.534 200.399 619.334 189.509 632.984 197.669C633.303 197.884 633.528 198.212 633.612 198.588C633.696 198.963 633.632 199.356 633.435 199.686C633.237 200.016 632.92 200.257 632.55 200.36C632.179 200.463 631.783 200.42 631.444 200.239C619.914 193.329 612.024 202.109 611.694 202.489C611.556 202.648 611.385 202.776 611.194 202.864C611.002 202.952 610.794 202.998 610.584 202.999Z" fill="black"/>
<path d="M116.984 197.499C116.746 197.502 116.51 197.447 116.298 197.339C116.086 197.231 115.902 197.073 115.764 196.879C108.874 187.349 100.764 181.879 91.6938 180.529C77.3538 178.439 65.2539 187.529 65.1339 187.669C64.8183 187.912 64.4191 188.019 64.0244 187.968C63.6296 187.916 63.2716 187.71 63.0289 187.394C62.7862 187.079 62.6789 186.68 62.7304 186.285C62.782 185.89 62.9882 185.532 63.3038 185.289C63.8338 184.879 76.4938 175.289 92.0938 177.549C102.024 178.989 110.804 184.899 118.194 195.119C118.31 195.279 118.393 195.461 118.439 195.653C118.485 195.845 118.492 196.045 118.461 196.24C118.429 196.435 118.359 196.622 118.255 196.79C118.151 196.958 118.015 197.104 117.854 197.219C117.601 197.402 117.296 197.5 116.984 197.499Z" fill="black"/>
<path d="M101.664 203.499C101.466 203.499 101.27 203.459 101.088 203.382C100.906 203.304 100.742 203.191 100.604 203.049C91.1939 193.559 81.324 200.049 80.914 200.349C80.7521 200.468 80.5679 200.554 80.3723 200.6C80.1768 200.647 79.974 200.654 79.7758 200.62C79.5776 200.587 79.388 200.514 79.2185 200.406C79.049 200.298 78.9029 200.157 78.789 199.992C78.675 199.826 78.5956 199.639 78.5552 199.442C78.5149 199.246 78.5145 199.042 78.5541 198.845C78.5937 198.648 78.6726 198.461 78.7859 198.295C78.8993 198.129 79.0448 197.988 79.2139 197.879C79.3339 197.789 91.5339 189.629 102.734 200.939C103.015 201.22 103.173 201.602 103.173 201.999C103.173 202.397 103.015 202.778 102.734 203.059C102.449 203.34 102.064 203.498 101.664 203.499Z" fill="black"/>
<path d="M429.864 442.999C429.616 442.999 429.377 442.906 429.194 442.739C350.964 371.499 305.434 287.309 304.984 286.499C304.88 286.268 304.868 286.006 304.95 285.766C305.032 285.527 305.202 285.327 305.425 285.208C305.648 285.088 305.909 285.058 306.154 285.123C306.399 285.189 306.609 285.345 306.744 285.559C307.194 286.399 352.584 370.239 430.534 441.289C430.683 441.425 430.788 441.602 430.834 441.799C430.881 441.995 430.867 442.2 430.795 442.389C430.722 442.577 430.594 442.739 430.428 442.853C430.262 442.967 430.065 443.029 429.864 443.029V442.999Z" fill="black"/>
<path d="M429.864 477.999C429.64 478.001 429.421 477.927 429.244 477.789C384.826 442.786 346.127 401.084 314.534 354.179C291.244 319.369 281.034 294.619 280.934 294.379C280.833 294.133 280.834 293.856 280.938 293.61C281.041 293.365 281.237 293.17 281.484 293.069C281.731 292.968 282.007 292.97 282.253 293.073C282.498 293.176 282.693 293.373 282.794 293.619C282.894 293.869 293.044 318.469 316.234 353.119C347.699 399.83 386.243 441.357 430.484 476.209C430.649 476.337 430.77 476.514 430.829 476.715C430.889 476.915 430.884 477.129 430.816 477.327C430.747 477.524 430.619 477.695 430.448 477.816C430.277 477.937 430.073 478.001 429.864 477.999Z" fill="black"/>
<path d="M365.864 374.559C365.676 374.56 365.491 374.508 365.331 374.409C365.171 374.309 365.042 374.167 364.96 373.998C364.877 373.828 364.844 373.639 364.864 373.452C364.884 373.265 364.957 373.087 365.074 372.939C395.344 334.359 386.924 295.609 386.834 295.219C386.785 294.964 386.837 294.7 386.979 294.482C387.121 294.265 387.342 294.111 387.596 294.054C387.849 293.997 388.115 294.041 388.337 294.176C388.558 294.311 388.719 294.528 388.784 294.779C388.874 295.169 397.534 334.779 366.654 374.179C366.56 374.298 366.44 374.395 366.303 374.46C366.166 374.526 366.016 374.56 365.864 374.559Z" fill="black"/>
<path d="M151.224 539.999C151.015 539.998 150.813 539.932 150.644 539.809C134.084 527.809 81.3139 459.509 79.0739 456.609C78.9533 456.44 78.8885 456.237 78.8885 456.029C78.8885 455.821 78.9533 455.619 79.0739 455.449L167.254 320.339C167.407 320.139 167.631 320.004 167.879 319.962C168.128 319.92 168.383 319.973 168.594 320.11C168.805 320.248 168.956 320.461 169.018 320.705C169.079 320.95 169.045 321.208 168.924 321.429L81.1439 455.949C86.3439 462.669 136.314 526.949 151.864 538.189C152.035 538.313 152.163 538.489 152.228 538.69C152.294 538.891 152.294 539.108 152.228 539.309C152.163 539.51 152.035 539.686 151.863 539.81C151.692 539.934 151.486 540 151.274 539.999H151.224Z" fill="black"/>
<path d="M100.204 482.779C100.028 482.778 99.8553 482.729 99.7039 482.639C99.5901 482.573 99.4906 482.485 99.4109 482.38C99.3312 482.276 99.273 482.156 99.2395 482.029C99.2061 481.902 99.1981 481.769 99.216 481.639C99.2339 481.508 99.2774 481.383 99.3439 481.269L174.774 351.499C174.912 351.282 175.129 351.126 175.38 351.064C175.63 351.003 175.895 351.041 176.118 351.17C176.342 351.299 176.506 351.509 176.578 351.757C176.65 352.005 176.623 352.271 176.504 352.499L101.074 482.279C100.986 482.432 100.859 482.558 100.706 482.646C100.553 482.734 100.38 482.78 100.204 482.779Z" fill="black"/>
<path d="M540.864 539.999C540.673 539.999 540.486 539.944 540.325 539.841C540.164 539.738 540.036 539.591 539.956 539.418C539.876 539.244 539.847 539.051 539.873 538.862C539.9 538.672 539.98 538.494 540.104 538.349L633.624 427.949L542.104 301.589C541.947 301.374 541.883 301.106 541.924 300.844C541.965 300.581 542.109 300.346 542.324 300.189C542.539 300.033 542.807 299.968 543.069 300.009C543.332 300.05 543.567 300.194 543.724 300.409L635.724 427.409C635.863 427.586 635.939 427.804 635.939 428.029C635.939 428.254 635.863 428.473 635.724 428.649L541.724 539.649C541.619 539.773 541.487 539.869 541.337 539.93C541.187 539.991 541.025 540.015 540.864 539.999Z" fill="black"/>
<path d="M616.114 451.129C615.956 451.13 615.8 451.093 615.66 451.022C615.519 450.95 615.397 450.847 615.304 450.719L531.304 334.869C531.226 334.763 531.17 334.642 531.139 334.514C531.108 334.386 531.103 334.254 531.123 334.124C531.143 333.994 531.189 333.869 531.258 333.757C531.327 333.644 531.417 333.547 531.524 333.469C531.63 333.392 531.751 333.336 531.879 333.304C532.007 333.273 532.139 333.268 532.27 333.289C532.4 333.309 532.524 333.355 532.637 333.424C532.749 333.492 532.847 333.583 532.924 333.689L616.924 449.549C617.03 449.699 617.093 449.874 617.107 450.057C617.12 450.24 617.083 450.422 616.999 450.586C616.916 450.749 616.789 450.885 616.633 450.981C616.477 451.077 616.297 451.128 616.114 451.129Z" fill="black"/>
</svg>
